<?xml version="1.0" encoding="UTF-8"?>
<svg version="1.1" xmlns="http://www.w3.org/2000/svg" width="500" height="500">
<path d="M0 0 C3.50018544 1.90814707 6.56635507 3.95296915 9.19140625 6.984375 C9.19140625 7.644375 9.19140625 8.304375 9.19140625 8.984375 C9.85140625 8.984375 10.51140625 8.984375 11.19140625 8.984375 C15.12211175 17.82846238 15.25782579 25.16412032 11.9453125 34.26953125 C11.19140625 35.984375 11.19140625 35.984375 10.19140625 36.984375 C8.91557906 48.61262849 11.72743384 59.00362846 15.19140625 69.984375 C15.41602539 70.69948242 15.64064453 71.41458984 15.87207031 72.15136719 C20.58913473 86.74199585 28.12755444 99.41960456 38.19140625 110.984375 C38.95839844 111.87253906 39.72539062 112.76070313 40.515625 113.67578125 C44.94459896 118.71577404 44.94459896 118.71577404 49.9609375 123.1484375 C50.69699219 123.75429688 51.43304688 124.36015625 52.19140625 124.984375 C52.19140625 125.644375 52.19140625 126.304375 52.19140625 126.984375 C52.75601563 127.25121094 53.320625 127.51804687 53.90234375 127.79296875 C56.33700475 129.06015579 58.54797675 130.50297733 60.81640625 132.046875 C63.91858571 134.16164151 63.91858571 134.16164151 67.19140625 135.984375 C67.19140625 136.644375 67.19140625 137.304375 67.19140625 137.984375 C67.72121094 138.09007812 68.25101562 138.19578125 68.796875 138.3046875 C71.86701095 139.17614534 74.60851182 140.51687378 77.50390625 141.859375 C97.06030202 150.41641701 120.68829229 150.66838743 140.83203125 143.73046875 C153.49024183 138.61420963 166.34389792 131.22239915 175.83984375 121.25390625 C177.19140625 119.984375 177.19140625 119.984375 179.19140625 119.984375 C179.19140625 119.324375 179.19140625 118.664375 179.19140625 117.984375 C179.85140625 117.984375 180.51140625 117.984375 181.19140625 117.984375 C181.43632812 117.42492187 181.68125 116.86546875 181.93359375 116.2890625 C183.4271972 113.55233567 185.26662792 111.4591209 187.31640625 109.109375 C201.72930462 91.67069187 210.42468643 69.34272095 212.69921875 46.96875 C213.19140625 43.984375 213.19140625 43.984375 215.19140625 41.984375 C217.9577735 41.05647125 220.69864112 40.21166142 223.50390625 39.421875 C224.26380859 39.20080078 225.02371094 38.97972656 225.80664062 38.75195312 C233.73179045 36.47287007 233.73179045 36.47287007 237.19140625 35.984375 C238.88489496 37.67786371 238.35595755 39.78839498 238.3815918 42.04956055 C238.35259138 64.96779776 232.71568481 86.04221089 222.10498047 106.24267578 C221.36201227 107.65912022 220.63554007 109.08420808 219.9140625 110.51171875 C216.09508165 117.80991346 211.0571384 124.36203108 206.19140625 130.984375 C205.63710938 131.78230469 205.0828125 132.58023438 204.51171875 133.40234375 C204.07601562 133.92441406 203.6403125 134.44648438 203.19140625 134.984375 C202.53140625 134.984375 201.87140625 134.984375 201.19140625 134.984375 C200.92328125 135.561875 200.65515625 136.139375 200.37890625 136.734375 C199.16211436 139.03987543 197.88806746 141.00493692 196.19140625 142.984375 C195.53140625 142.984375 194.87140625 142.984375 194.19140625 142.984375 C194.19140625 143.644375 194.19140625 144.304375 194.19140625 144.984375 C188.71521577 149.984375 188.71521577 149.984375 186.19140625 149.984375 C186.19140625 150.644375 186.19140625 151.304375 186.19140625 151.984375 C170.95519115 165.44518368 146.82097041 177.984375 126.19140625 177.984375 C126.19140625 196.794375 126.19140625 215.604375 126.19140625 234.984375 C140.26718775 234.74771707 140.26718775 234.74771707 154.34155273 234.44384766 C156.12351307 234.4263023 157.9054977 234.41101812 159.6875 234.3984375 C161.04349304 234.3523938 161.04349304 234.3523938 162.42687988 234.30541992 C170.96972482 234.29847734 176.03350483 237.96377364 182.06640625 243.734375 C186.88536595 251.10454867 187.19140625 257.12974695 187.19140625 265.984375 C131.75140625 265.984375 76.31140625 265.984375 19.19140625 265.984375 C17.30579372 262.21314995 17.77422529 258.52995506 18.83984375 254.58203125 C21.70974208 246.62235597 26.40592488 239.76589452 34.19140625 235.984375 C34.85140625 235.654375 35.51140625 235.324375 36.19140625 234.984375 C37.73368481 234.89446408 39.2798152 234.86680539 40.82470703 234.87084961 C41.79899658 234.87097046 42.77328613 234.87109131 43.77709961 234.87121582 C44.80327393 234.87633179 45.82944824 234.88144775 46.88671875 234.88671875 C47.82829834 234.88772583 48.76987793 234.88873291 49.73999023 234.88977051 C53.26547459 234.89501213 56.79094161 234.90897334 60.31640625 234.921875 C72.13453125 234.9528125 72.13453125 234.9528125 84.19140625 234.984375 C84.19140625 216.174375 84.19140625 197.364375 84.19140625 177.984375 C81.88140625 177.654375 79.57140625 177.324375 77.19140625 176.984375 C66.084622 174.54529211 56.30978188 170.03131297 46.19140625 164.984375 C46.19140625 164.324375 46.19140625 163.664375 46.19140625 162.984375 C45.63453125 162.88898438 45.07765625 162.79359375 44.50390625 162.6953125 C36.94536177 160.37157079 30.42416351 153.47728283 24.62890625 148.234375 C24.11650391 147.77498535 23.60410156 147.3155957 23.07617188 146.84228516 C20.47022771 144.43187449 18.50398306 142.30853401 17.19140625 138.984375 C16.53140625 138.984375 15.87140625 138.984375 15.19140625 138.984375 C12.19140625 135.52283654 12.19140625 135.52283654 12.19140625 132.984375 C11.53140625 132.984375 10.87140625 132.984375 10.19140625 132.984375 C8.46484375 130.6484375 8.46484375 130.6484375 6.56640625 127.609375 C5.93476563 126.61164063 5.303125 125.61390625 4.65234375 124.5859375 C3.19140625 121.984375 3.19140625 121.984375 3.19140625 119.984375 C2.53140625 119.984375 1.87140625 119.984375 1.19140625 119.984375 C-3.88671875 109.828125 -3.88671875 109.828125 -4.83398438 107.92553711 C-5.49079974 106.61733597 -6.15637451 105.3135006 -6.83007812 104.01391602 C-9.19196536 99.42004534 -11.12295003 94.80284811 -12.80859375 89.921875 C-13.19204956 88.81344238 -13.19204956 88.81344238 -13.58325195 87.68261719 C-16.61838692 78.7652971 -19.3804346 69.92835479 -20.5078125 60.5546875 C-20.62294189 59.61270508 -20.73807129 58.67072266 -20.85668945 57.70019531 C-21.07010625 55.84558901 -21.25860561 53.98789761 -21.41870117 52.12792969 C-21.90708009 47.74285771 -22.25319714 44.92962574 -25.76953125 42.046875 C-26.77242187 41.36625 -27.7753125 40.685625 -28.80859375 39.984375 C-33.23299018 34.33097956 -35.37585788 28.40348325 -35.109375 21.15234375 C-33.9724463 12.95759796 -30.3367245 7.84998857 -24.125 2.578125 C-17.1918593 -2.19206287 -7.89455371 -2.85477603 0 0 Z " fill="#0EA3AF" transform="translate(162.80859375,173.015625)"/>
<path d="M0 0 C0 0.66 0 1.32 0 2 C0.81984375 2.14308594 0.81984375 2.14308594 1.65625 2.2890625 C4.64241521 3.19486595 6.88697757 4.67366397 9.5 6.375 C10.4384375 6.98085938 11.376875 7.58671875 12.34375 8.2109375 C17.20922677 11.48797921 17.20922677 11.48797921 19 13 C19 13.66 19 14.32 19 15 C19.639375 15.268125 20.27875 15.53625 20.9375 15.8125 C23 17 23 17 24 20 C24.66 20 25.32 20 26 20 C38.63543307 34.4802063 47.38473114 52.46310513 47.24291992 71.90039062 C47.24481827 72.73890564 47.24671661 73.57742065 47.24867249 74.44134521 C47.25234175 77.17974556 47.24173724 79.91787375 47.23046875 82.65625 C47.22927537 84.56913217 47.22882412 86.48201494 47.2290802 88.39489746 C47.22752237 92.3856986 47.21928168 96.37640913 47.20581055 100.3671875 C47.18872929 105.49320122 47.1849992 110.61911648 47.18575573 115.74515533 C47.18548463 119.68608548 47.18001465 123.62699392 47.17275429 127.56791687 C47.1695651 129.45944556 47.16759963 131.3509767 47.16686058 133.24250793 C47.16470488 135.87330378 47.15598021 138.50399259 47.14526367 141.13476562 C47.14571686 141.92119446 47.14617004 142.70762329 47.14663696 143.5178833 C47.1144834 148.8855166 47.1144834 148.8855166 46 150 C27.38842378 151.65436233 12.7802127 139.56613697 -0.82958984 128.71142578 C-34.69953082 102.004082 -70.02555827 91.91273755 -112.9375 96.5 C-114.99939881 96.71643038 -117.06146292 96.93088905 -119.12391663 97.14196777 C-120.97618403 97.332084 -122.82783772 97.52815254 -124.67944336 97.72460938 C-127.81354718 97.98453652 -130.85752075 98.12365765 -134 98 C-137.34743338 94.65256662 -135.38396608 83.29062217 -135.38720703 78.34838867 C-135.23351994 54.26747834 -126.25369787 33.66727496 -109.6875 16.1875 C-79.1017731 -12.73479263 -37.42638136 -15.99550738 0 0 Z " fill="#466F90" transform="translate(310,22)"/>
<path d="M0 0 C12.43056896 -0.26185833 22.297926 4.22940039 33 10 C33.79019531 10.40089844 34.58039063 10.80179688 35.39453125 11.21484375 C46.78614305 17.15369888 56.80496868 25.45675809 66.453125 33.84765625 C68.7875624 35.99201035 68.7875624 35.99201035 71 37 C71 37.66 71 38.32 71 39 C71.66 39 72.32 39 73 39 C73 39.66 73 40.32 73 41 C73.56203125 41.2578125 74.1240625 41.515625 74.703125 41.78125 C77.26704579 43.14169777 79.45226365 44.72788962 81.75 46.5 C82.54921875 47.1084375 83.3484375 47.716875 84.171875 48.34375 C84.77515625 48.8903125 85.3784375 49.436875 86 50 C86 50.66 86 51.32 86 52 C86.53753906 52.23460937 87.07507813 52.46921875 87.62890625 52.7109375 C90.66399077 54.36098345 93.25039457 56.47507332 95.9375 58.625 C115.59525958 74.02623517 134.78418532 82.70637595 160 81 C162.93177234 80.55862396 162.93177234 80.55862396 165 80 C164.46487157 86.00156696 163.16834039 91.04086842 160.9375 96.625 C160.48201782 97.78491455 160.48201782 97.78491455 160.01733398 98.96826172 C157.01312951 106.38162959 153.20315225 113.20945272 149 120 C148.34 120 147.68 120 147 120 C146.6596875 121.051875 146.6596875 121.051875 146.3125 122.125 C144.66158712 125.74128535 142.7091165 128.08769976 140 131 C139.34 131 138.68 131 138 131 C138 131.66 138 132.32 138 133 C137.34 133 136.68 133 136 133 C136 133.66 136 134.32 136 135 C134.1015625 136.7265625 134.1015625 136.7265625 131.625 138.625 C130.81289063 139.25664062 130.00078125 139.88828125 129.1640625 140.5390625 C127 142 127 142 125 142 C125 142.66 125 143.32 125 144 C105.46707905 154.96447963 86.46765781 159.49650141 64 154 C56.97372258 151.44329348 50.4540394 147.74493644 44 144 C44 143.34 44 142.68 44 142 C43.29359375 141.78085937 42.5871875 141.56171875 41.859375 141.3359375 C38.33375186 139.68872013 35.92605705 137.37594833 33.25 134.625 C32.72776855 134.09406738 32.20553711 133.56313477 31.66748047 133.01611328 C3.96250885 104.27781652 -1.72956877 68.85705718 -1.07958984 30.50830078 C-0.84878238 20.3343646 -0.45172773 10.16627668 0 0 Z " fill="#335D7C" transform="translate(189,151)"/>
<path d="M0 0 C1.88327135 1.35554146 3.79567439 2.61105293 5.7578125 3.84765625 C6.5415625 4.40453125 7.3253125 4.96140625 8.1328125 5.53515625 C8.1328125 6.19515625 8.1328125 6.85515625 8.1328125 7.53515625 C9.7828125 8.19515625 11.4328125 8.85515625 13.1328125 9.53515625 C13.1328125 10.19515625 13.1328125 10.85515625 13.1328125 11.53515625 C13.67679687 11.76074219 14.22078125 11.98632812 14.78125 12.21875 C17.86921369 13.94739412 20.17736224 16.18065769 22.7578125 18.59765625 C26.17491003 21.95049272 26.17491003 21.95049272 30.1328125 24.53515625 C30.1328125 25.19515625 30.1328125 25.85515625 30.1328125 26.53515625 C30.67808594 26.78523438 31.22335937 27.0353125 31.78515625 27.29296875 C34.5993994 28.78203584 37.09402933 30.57436386 39.6953125 32.41015625 C50.27204876 39.48262923 65.1283164 45.23979685 78.046875 43.0546875 C81.83042693 42.11234217 85.47508089 40.87769444 89.1328125 39.53515625 C91.1328125 38.86848958 93.1328125 38.20182292 95.1328125 37.53515625 C95.1328125 36.87515625 95.1328125 36.21515625 95.1328125 35.53515625 C95.7928125 35.16003906 96.4528125 34.78492188 97.1328125 34.3984375 C99.53896867 32.58168564 99.53896867 32.58168564 99.3828125 28.953125 C99.28705207 26.83243053 99.1326557 24.7205297 98.9765625 22.60351562 C98.73824733 17.29603819 99.78195021 14.61602783 103.1328125 10.53515625 C107.28071032 6.1694938 110.60353819 4.67567149 116.5078125 4.34765625 C122.06562362 4.63512924 126.64568512 6.22885186 131.1328125 9.53515625 C135.78035557 15.73188034 137.11817854 20.90140094 136.1328125 28.53515625 C133.91437678 34.28518246 129.79250931 39.0112374 124.1328125 41.53515625 C119.67447906 42.54712717 115.64153422 42.87263348 111.1640625 41.87109375 C107.36438249 41.44999519 105.94654446 42.3482521 102.6953125 44.28515625 C86.61868998 52.85138634 68.17908087 51.94001647 51.13134766 46.94921875 C40.16670692 43.44313082 30.15953141 38.11934376 20.1328125 32.53515625 C20.1328125 31.87515625 20.1328125 31.21515625 20.1328125 30.53515625 C19.41738281 30.27734375 18.70195312 30.01953125 17.96484375 29.75390625 C14.96121139 28.4613086 12.49775878 26.90738535 9.8203125 25.03515625 C8.49580078 24.1225 8.49580078 24.1225 7.14453125 23.19140625 C6.48066406 22.64484375 5.81679688 22.09828125 5.1328125 21.53515625 C5.1328125 20.87515625 5.1328125 20.21515625 5.1328125 19.53515625 C4.3490625 19.28765625 3.5653125 19.04015625 2.7578125 18.78515625 C-0.33212737 17.31375631 -0.40377977 16.4619717 -1.8671875 13.53515625 C-2.58648437 13.26058594 -3.30578125 12.98601562 -4.046875 12.703125 C-7.49150925 11.27660749 -10.12172763 9.1684996 -12.9921875 6.84765625 C-22.73030579 -1.03155015 -22.73030579 -1.03155015 -33.8671875 -6.46484375 C-33.8671875 -7.12484375 -33.8671875 -7.78484375 -33.8671875 -8.46484375 C-34.40085937 -8.58214844 -34.93453125 -8.69945312 -35.484375 -8.8203125 C-38.4066977 -9.61077684 -41.16367289 -10.69742623 -43.9921875 -11.77734375 C-62.46864361 -18.41066264 -80.40587201 -19.24154874 -99.8671875 -19.46484375 C-100.1971875 -20.12484375 -100.5271875 -20.78484375 -100.8671875 -21.46484375 C-68.19921328 -32.35416849 -26.57807716 -19.25375557 0 0 Z " fill="#148897" transform="translate(279.8671875,154.46484375)"/>
<path d="M0 0 C1.88327135 1.35554146 3.79567439 2.61105293 5.7578125 3.84765625 C6.5415625 4.40453125 7.3253125 4.96140625 8.1328125 5.53515625 C8.1328125 6.19515625 8.1328125 6.85515625 8.1328125 7.53515625 C9.7828125 8.19515625 11.4328125 8.85515625 13.1328125 9.53515625 C13.1328125 10.19515625 13.1328125 10.85515625 13.1328125 11.53515625 C13.67679687 11.76074219 14.22078125 11.98632812 14.78125 12.21875 C17.86921369 13.94739412 20.17736224 16.18065769 22.7578125 18.59765625 C26.17491003 21.95049272 26.17491003 21.95049272 30.1328125 24.53515625 C30.1328125 25.19515625 30.1328125 25.85515625 30.1328125 26.53515625 C30.66777344 26.78136719 31.20273437 27.02757812 31.75390625 27.28125 C35.83569807 29.43273633 39.55026098 32.15672486 43.35546875 34.7578125 C46.0553813 36.6454586 46.0553813 36.6454586 49.1328125 37.53515625 C49.1328125 38.85515625 49.1328125 40.17515625 49.1328125 41.53515625 C37.59147485 43.33640548 29.6802786 38.23648672 20.1328125 32.53515625 C20.1328125 31.87515625 20.1328125 31.21515625 20.1328125 30.53515625 C19.41738281 30.27734375 18.70195312 30.01953125 17.96484375 29.75390625 C14.96121139 28.4613086 12.49775878 26.90738535 9.8203125 25.03515625 C8.49580078 24.1225 8.49580078 24.1225 7.14453125 23.19140625 C6.48066406 22.64484375 5.81679688 22.09828125 5.1328125 21.53515625 C5.1328125 20.87515625 5.1328125 20.21515625 5.1328125 19.53515625 C4.3490625 19.28765625 3.5653125 19.04015625 2.7578125 18.78515625 C-0.33212737 17.31375631 -0.40377977 16.4619717 -1.8671875 13.53515625 C-2.58648437 13.26058594 -3.30578125 12.98601562 -4.046875 12.703125 C-7.49150925 11.27660749 -10.12172763 9.1684996 -12.9921875 6.84765625 C-22.73030579 -1.03155015 -22.73030579 -1.03155015 -33.8671875 -6.46484375 C-33.8671875 -7.12484375 -33.8671875 -7.78484375 -33.8671875 -8.46484375 C-34.40085937 -8.58214844 -34.93453125 -8.69945312 -35.484375 -8.8203125 C-38.4066977 -9.61077684 -41.16367289 -10.69742623 -43.9921875 -11.77734375 C-62.46864361 -18.41066264 -80.40587201 -19.24154874 -99.8671875 -19.46484375 C-100.1971875 -20.12484375 -100.5271875 -20.78484375 -100.8671875 -21.46484375 C-68.19921328 -32.35416849 -26.57807716 -19.25375557 0 0 Z " fill="#13A4AE" transform="translate(279.8671875,154.46484375)"/>
<path d="M0 0 C0.66 0 1.32 0 2 0 C2 19.47 2 38.94 2 59 C16.0757815 58.76334207 16.0757815 58.76334207 30.15014648 58.45947266 C31.93210682 58.4419273 33.71409145 58.42664312 35.49609375 58.4140625 C36.40008911 58.3833667 37.30408447 58.3526709 38.23547363 58.32104492 C46.77831857 58.31410234 51.84209858 61.97939864 57.875 67.75 C62.6939597 75.12017367 63 81.14537195 63 90 C7.56 90 -47.88 90 -105 90 C-106.5121867 86.97562661 -106.17263369 84.33758466 -106 81 C-105.34 79.68 -104.68 78.36 -104 77 C-104 80.96 -104 84.92 -104 89 C-62.09 89 -20.18 89 23 89 C23.33 88.34 23.66 87.68 24 87 C34.89 87 45.78 87 57 87 C57 86.34 57 85.68 57 85 C57.66 84.67 58.32 84.34 59 84 C58.67 83.01 58.34 82.02 58 81 C58.66 81 59.32 81 60 81 C59.67 79.02 59.34 77.04 59 75 C58.01 74.67 57.02 74.34 56 74 C55.34 73.01 54.68 72.02 54 71 C53.319375 70.67 52.63875 70.34 51.9375 70 C50 69 50 69 49 66 C48.21625 65.896875 47.4325 65.79375 46.625 65.6875 C44 65 44 65 42 62 C38.97169849 61.75815648 36.14920108 61.70068491 33.125 61.77734375 C31.80459717 61.79082603 31.80459717 61.79082603 30.45751953 61.80458069 C27.63795133 61.83468012 24.81922392 61.88448362 22 61.9375 C19.18083395 61.98523775 16.36188081 62.02857916 13.54248047 62.05970764 C11.7861518 62.07954993 10.02990253 62.1092727 8.27392578 62.14964294 C6.18218274 62.17554306 4.08965497 62.09696316 2 62 C0 60 0 60 -0.24050903 57.48165894 C-0.23606781 56.4202066 -0.23162659 55.35875427 -0.22705078 54.26513672 C-0.22689972 53.06404266 -0.22674866 51.86294861 -0.22659302 50.62545776 C-0.21627045 49.32335358 -0.20594788 48.02124939 -0.1953125 46.6796875 C-0.19158276 45.33733327 -0.18873561 43.99497633 -0.18673706 42.65261841 C-0.17909744 39.117986 -0.1594463 35.58351772 -0.1373291 32.0489502 C-0.11687765 28.4428123 -0.10773685 24.83664791 -0.09765625 21.23046875 C-0.0762006 14.15357865 -0.04206079 7.07680003 0 0 Z " fill="#2B8690" transform="translate(287,349)"/>
<path d="M0 0 C1.33855056 0.78281305 2.67073644 1.57651877 4 2.375 C5.11375 3.03628906 5.11375 3.03628906 6.25 3.7109375 C6.8275 4.13632813 7.405 4.56171875 8 5 C8 5.66 8 6.32 8 7 C10.475 7.99 10.475 7.99 13 9 C13 9.66 13 10.32 13 11 C13.54398437 11.22558594 14.08796875 11.45117188 14.6484375 11.68359375 C17.73640119 13.41223787 20.04454974 15.64550144 22.625 18.0625 C26.04209753 21.41533647 26.04209753 21.41533647 30 24 C30 24.66 30 25.32 30 26 C30.53496094 26.24621094 31.06992187 26.49242187 31.62109375 26.74609375 C35.70288557 28.89758008 39.41744848 31.62156861 43.22265625 34.22265625 C45.9225688 36.11030235 45.9225688 36.11030235 49 37 C49 38.32 49 39.64 49 41 C37.45866235 42.80124923 29.5474661 37.70133047 20 32 C20 31.34 20 30.68 20 30 C19.28457031 29.7421875 18.56914062 29.484375 17.83203125 29.21875 C14.82839889 27.92615235 12.36494628 26.3722291 9.6875 24.5 C8.80449219 23.8915625 7.92148437 23.283125 7.01171875 22.65625 C6.34785156 22.1096875 5.68398438 21.563125 5 21 C5 20.34 5 19.68 5 19 C4.01 18.67 3.02 18.34 2 18 C3.8125 17.3125 3.8125 17.3125 6 17 C7.75 18.4375 7.75 18.4375 9 20 C9.99 19.67 10.98 19.34 12 19 C11.67 17.68 11.34 16.36 11 15 C11.66 14.67 12.32 14.34 13 14 C12.34 13.54625 11.68 13.0925 11 12.625 C10.34 12.08875 9.68 11.5525 9 11 C9 10.34 9 9.68 9 9 C8.4225 8.9175 7.845 8.835 7.25 8.75 C4.30367249 7.76789083 2.96972088 6.37724934 1 4 C0.38671875 1.86328125 0.38671875 1.86328125 0 0 Z " fill="#149CA7" transform="translate(280,155)"/>
<path d="M0 0 C0.57889539 24.76385842 -4.57201144 47.33736931 -16.08642578 69.25830078 C-16.82939398 70.67474522 -17.55586618 72.09983308 -18.27734375 73.52734375 C-22.0963246 80.82553846 -27.13426785 87.37765608 -32 94 C-32.55429687 94.79792969 -33.10859375 95.59585938 -33.6796875 96.41796875 C-34.11539062 96.94003906 -34.55109375 97.46210938 -35 98 C-35.66 98 -36.32 98 -37 98 C-37.4021875 98.86625 -37.4021875 98.86625 -37.8125 99.75 C-39.01719859 102.0325868 -40.40798115 103.9737942 -42 106 C-42.66 105.67 -43.32 105.34 -44 105 C-44 102 -44 102 -42.125 99.8125 C-40 98 -40 98 -38 98 C-38 97.01 -38 96.02 -38 95 C-37.34 95 -36.68 95 -36 95 C-36 94.34 -36 93.68 -36 93 C-35.34 93 -34.68 93 -34 93 C-32.92474806 90.34771188 -31.90543849 87.71631546 -31 85 C-30.34 85 -29.68 85 -29 85 C-29.495 82.03 -29.495 82.03 -30 79 C-29.01 78.505 -29.01 78.505 -28 78 C-28 78.66 -28 79.32 -28 80 C-27.01 80 -26.02 80 -25 80 C-25 76.7 -25 73.4 -25 70 C-23.02 70 -21.04 70 -19 70 C-18.855625 69.4225 -18.71125 68.845 -18.5625 68.25 C-18.04166667 66.16666667 -17.52083333 64.08333333 -17 62 C-16.34 62 -15.68 62 -15 62 C-15.10699219 61.43152344 -15.21398437 60.86304688 -15.32421875 60.27734375 C-16.22180441 54.49612 -16.00578746 51.07874432 -13 46 C-10.8125 44.5625 -10.8125 44.5625 -9 44 C-9.04125 42.80375 -9.0825 41.6075 -9.125 40.375 C-9.13851708 36.57670047 -8.42009753 33.55024382 -7 30 C-6.34 30 -5.68 30 -5 30 C-3.6786742 21.2580141 -2.66834412 12.862582 -3 4 C-3.99 4.33 -4.98 4.66 -6 5 C-6.99 5 -7.98 5 -9 5 C-11.39653619 5.15623519 -13.79231902 5.3242069 -16.1875 5.5 C-18.09595703 5.63921875 -18.09595703 5.63921875 -20.04296875 5.78125 C-21.01878906 5.8534375 -21.99460937 5.925625 -23 6 C-19.32533812 4.00330873 -15.44657508 2.65740083 -11.5 1.3125 C-10.83613281 1.07466797 -10.17226563 0.83683594 -9.48828125 0.59179688 C-3.46442227 -1.45823897 -3.46442227 -1.45823897 0 0 Z " fill="#197584" transform="translate(401,210)"/>
<path d="M0 0 C0.33 0 0.66 0 1 0 C3.75900834 11.9093885 3.75900834 11.9093885 0.875 18.05078125 C-0.13229302 20.29470632 -0.70146766 22.47898027 -1.25 24.875 C-1.42015625 25.61492187 -1.5903125 26.35484375 -1.765625 27.1171875 C-2.18745582 29.08698434 -2.18745582 29.08698434 -1 31 C-1.45117188 31.39960938 -1.90234375 31.79921875 -2.3671875 32.2109375 C-4.22025172 34.24132844 -5.07715366 36.0920171 -6.125 38.625 C-7.91666667 42.91666667 -7.91666667 42.91666667 -9 44 C-9.0928125 45.85625 -9.0928125 45.85625 -9.1875 47.75 C-9.45443738 50.32272407 -9.63998622 51.60478934 -11.3984375 53.53515625 C-12.92151499 54.70427911 -14.46003268 55.85321582 -16 57 C-16 57.99 -16 58.98 -16 60 C-16.63106429 62.01151741 -17.29373761 64.01363702 -18 66 C-18.66 66 -19.32 66 -20 66 C-20.474375 66.804375 -20.94875 67.60875 -21.4375 68.4375 C-23 71 -23 71 -26 72 C-26 72.66 -26 73.32 -26 74 C-25.01 74.495 -25.01 74.495 -24 75 C-24.495 76.98 -24.495 76.98 -25 79 C-27.97 78.01 -27.97 78.01 -31 77 C-31.66 77.66 -32.32 78.32 -33 79 C-33.99 79 -34.98 79 -36 79 C-36 80.65 -36 82.3 -36 84 C-37.0725 84.61875 -38.145 85.2375 -39.25 85.875 C-39.889375 86.24496094 -40.52875 86.61492187 -41.1875 86.99609375 C-43 88 -43 88 -45.25 88.9375 C-47.26153286 89.92963483 -47.26153286 89.92963483 -48.125 92.5625 C-50 95 -50 95 -52.375 95.4765625 C-54.18726777 95.61557168 -56.00340992 95.7116881 -57.8203125 95.76171875 C-58.53960937 95.84035156 -59.25890625 95.91898437 -60 96 C-60.495 96.99 -60.495 96.99 -61 98 C-62.65 98 -64.3 98 -66 98 C-64.68201178 95.36402357 -63.48958421 95.18787423 -60.8125 94 C-56.11199284 91.72425014 -51.92430305 89.02636784 -47.6875 86 C-47.10137939 85.58492188 -46.51525879 85.16984375 -45.91137695 84.7421875 C-43.09098573 82.69596612 -40.67717651 80.674919 -38.20703125 78.1875 C-36 76 -36 76 -34 76 C-34 75.34 -34 74.68 -34 74 C-33.34 74 -32.68 74 -32 74 C-31.75507813 73.44054687 -31.51015625 72.88109375 -31.2578125 72.3046875 C-29.76420905 69.56796067 -27.92477833 67.4747459 -25.875 65.125 C-10.6333731 46.68360848 -2.50668045 23.54960314 0 0 Z " fill="#187E8A" transform="translate(376,217)"/>
<path d="M0 0 C1.4375 2.125 1.4375 2.125 2 4 C1.34 4.66 0.68 5.32 0 6 C0 6.33 0 6.66 0 7 C-5.37421853 7.26453407 -9.72499639 6.38572961 -14.75 4.625 C-26.31238747 0.61546241 -37.4856498 -0.34466552 -49.6875 -0.625 C-51.08270367 -0.66329144 -52.47788652 -0.7023491 -53.87304688 -0.7421875 C-57.24857169 -0.83562763 -60.6241027 -0.92139416 -64 -1 C-64.33 -1.66 -64.66 -2.32 -65 -3 C-46.14098169 -9.28633944 -18.68105264 -6.28254509 0 0 Z " fill="#17A3AE" transform="translate(244,136)"/>
<path d="M0 0 C0.66 0 1.32 0 2 0 C2 19.47 2 38.94 2 59 C16.52 59 31.04 59 46 59 C46 59.66 46 60.32 46 61 C39.77070646 61.19332092 33.54110786 61.37079361 27.31103516 61.53710938 C25.19048783 61.59560723 23.07003838 61.65776984 20.94970703 61.72363281 C17.90675676 61.81752469 14.86370102 61.89834935 11.8203125 61.9765625 C10.86818878 62.00875885 9.91606506 62.0409552 8.93508911 62.0741272 C7.61394608 62.10438492 7.61394608 62.10438492 6.26611328 62.13525391 C5.48889923 62.15746002 4.71168518 62.17966614 3.91091919 62.20254517 C2 62 2 62 0 60 C-0.24050903 57.48165894 -0.24050903 57.48165894 -0.22705078 54.26513672 C-0.22689972 53.06404266 -0.22674866 51.86294861 -0.22659302 50.62545776 C-0.21627045 49.32335358 -0.20594788 48.02124939 -0.1953125 46.6796875 C-0.19158276 45.33733327 -0.18873561 43.99497633 -0.18673706 42.65261841 C-0.17909744 39.117986 -0.1594463 35.58351772 -0.1373291 32.0489502 C-0.11687765 28.4428123 -0.10773685 24.83664791 -0.09765625 21.23046875 C-0.0762006 14.15357865 -0.04206079 7.07680003 0 0 Z " fill="#1B6E7A" transform="translate(287,349)"/>
<path d="M0 0 C0 0.66 0 1.32 0 2 C-0.66 2 -1.32 2 -2 2 C-2 2.66 -2 3.32 -2 4 C-6.75 5 -6.75 5 -9 5 C-9 5.66 -9 6.32 -9 7 C-9.99 7.33 -10.98 7.66 -12 8 C-12.495 7.01 -12.495 7.01 -13 6 C-13.886875 6.45375 -14.77375 6.9075 -15.6875 7.375 C-19 9 -19 9 -21.75 9.875 C-24.73560114 11.36780057 -24.90389735 12.94657119 -26 16 C-29 17 -29 17 -32 16 C-32.33 16.66 -32.66 17.32 -33 18 C-34.32 18 -35.64 18 -37 18 C-37.33 18.99 -37.66 19.98 -38 21 C-40.9375 22.75 -40.9375 22.75 -44 24 C-44.66 23.67 -45.32 23.34 -46 23 C-42.69904331 14.08339137 -28.4937495 8.36679837 -20.296875 4.44140625 C-13.5023268 1.47080402 -7.44431769 -0.48549898 0 0 Z " fill="#6789A4" transform="translate(249,15)"/>
<path d="M0 0 C0.495 0.99 0.495 0.99 1 2 C-4.75 7 -4.75 7 -7 7 C-7 7.66 -7 8.32 -7 9 C-19.03147313 19.62950062 -37.75928572 30.86692691 -54 32 C-53.505 30.515 -53.505 30.515 -53 29 C-48.05 28.01 -48.05 28.01 -43 27 C-43 26.01 -43 25.02 -43 24 C-41.205625 23.87625 -41.205625 23.87625 -39.375 23.75 C-35.09014813 23.24098391 -32.47799261 21.56708979 -29 19 C-28.34 19 -27.68 19 -27 19 C-27.33 17.02 -27.66 15.04 -28 13 C-25.36 13.33 -22.72 13.66 -20 14 C-19.67 12.68 -19.34 11.36 -19 10 C-18.34 10 -17.68 10 -17 10 C-16.67 9.01 -16.34 8.02 -16 7 C-16 7.66 -16 8.32 -16 9 C-15.44570313 8.71125 -14.89140625 8.4225 -14.3203125 8.125 C-13.59585938 7.75375 -12.87140625 7.3825 -12.125 7 C-11.40570313 6.62875 -10.68640625 6.2575 -9.9453125 5.875 C-8 5 -8 5 -6 5 C-6 4.34 -6 3.68 -6 3 C-5.34 3 -4.68 3 -4 3 C-4 2.34 -4 1.68 -4 1 C-2.68 0.67 -1.36 0.34 0 0 Z " fill="#1A727D" transform="translate(356,316)"/>
<path d="M0 0 C2.64 0.33 5.28 0.66 8 1 C8.268125 1.804375 8.53625 2.60875 8.8125 3.4375 C9.204375 4.283125 9.59625 5.12875 10 6 C10.99 6.33 11.98 6.66 13 7 C13 7.66 13 8.32 13 9 C14.32 9.33 15.64 9.66 17 10 C17 10.66 17 11.32 17 12 C17.639375 12.28875 18.27875 12.5775 18.9375 12.875 C21 14 21 14 22 16 C21.01 16 20.02 16 19 16 C19.66 17.65 20.32 19.3 21 21 C19.1875 21.6875 19.1875 21.6875 17 22 C15.5625 20.6875 15.5625 20.6875 14 19 C11.40084462 17.80972016 11.40084462 17.80972016 9 17 C9 14.36 9 11.72 9 9 C8.01 9 7.02 9 6 9 C5.525625 8.195625 5.05125 7.39125 4.5625 6.5625 C3.26644144 3.8421105 3.26644144 3.8421105 0.8125 3.1875 C0.214375 3.125625 -0.38375 3.06375 -1 3 C-0.67 2.01 -0.34 1.02 0 0 Z " fill="#0BACB8" transform="translate(272,154)"/>
<path d="M0 0 C6.7627065 0 8.46223757 0.28762657 14 3 C13.67 3.66 13.34 4.32 13 5 C12.01 5 11.02 5 10 5 C10 5.66 10 6.32 10 7 C8.35 7.33 6.7 7.66 5 8 C4.67 7.01 4.34 6.02 4 5 C2.8547028 9.71963132 2.68433971 14.40796655 2.46484375 19.23828125 C2.42186661 20.11904831 2.37888947 20.99981537 2.33460999 21.90727234 C2.19871477 24.70885836 2.06803619 27.51065968 1.9375 30.3125 C1.84604763 32.21681345 1.7542546 34.12111057 1.66210938 36.02539062 C1.43745886 40.68341381 1.21748525 45.34163699 1 50 C0.67 50 0.34 50 0 50 C0 33.5 0 17 0 0 Z " fill="#56778E" transform="translate(189,151)"/>
<path d="M0 0 C1.1263385 0.00707474 2.252677 0.01414948 3.41314697 0.0214386 C7.010482 0.04942633 10.60626044 0.11217728 14.203125 0.17578125 C16.64190461 0.20085826 19.08070861 0.22367246 21.51953125 0.24414062 C27.4979269 0.29926747 33.47541475 0.38293894 39.453125 0.48828125 C38.793125 1.14828125 38.133125 1.80828125 37.453125 2.48828125 C36.793125 2.15828125 36.133125 1.82828125 35.453125 1.48828125 C35.123125 2.14828125 34.793125 2.80828125 34.453125 3.48828125 C33.793125 3.15828125 33.133125 2.82828125 32.453125 2.48828125 C28.13269713 2.38659042 23.81590805 2.54296362 19.49707031 2.67529297 C17.35751079 2.73742786 15.21817852 2.77927173 13.078125 2.8203125 C5.94370701 3.00379822 -0.03142929 3.45711466 -6.546875 6.48828125 C-10.25602112 7.68098433 -12.01167077 7.15768325 -15.546875 5.48828125 C-12.05956688 -1.24856399 -6.71586428 -0.15828813 0 0 Z " fill="#1BB5C0" transform="translate(208.546875,408.51171875)"/>
<path d="M0 0 C0.99 0.33 1.98 0.66 3 1 C2.67 3.97 2.34 6.94 2 10 C2.99 9.67 3.98 9.34 5 9 C7.36556709 11.36556709 7.58244041 12.74303521 8 16 C7.67 16.33 7.34 16.66 7 17 C8.32 17 9.64 17 11 17 C10.67 18.32 10.34 19.64 10 21 C10.66 21 11.32 21 12 21 C12.33 20.34 12.66 19.68 13 19 C13.33 20.65 13.66 22.3 14 24 C12.35 24.66 10.7 25.32 9 26 C2.60638558 19.77918596 -1.05296439 14.95363994 -1.1875 5.6875 C-1 2 -1 2 0 0 Z " fill="#19ACB2" transform="translate(129,190)"/>
<path d="M0 0 C0.33 0 0.66 0 1 0 C3.75900834 11.9093885 3.75900834 11.9093885 0.875 18.05078125 C-0.13229302 20.29470632 -0.70146766 22.47898027 -1.25 24.875 C-1.42015625 25.61492187 -1.5903125 26.35484375 -1.765625 27.1171875 C-2.18745582 29.08698434 -2.18745582 29.08698434 -1 31 C-1.45375 31.4021875 -1.9075 31.804375 -2.375 32.21875 C-4.20200197 34.22142523 -4.9965766 35.99144149 -6 38.5 C-7.26383692 41.6595923 -8.44130532 43.73206608 -11 46 C-12.36079798 41.91760606 -11.11533932 40.54199666 -9.3125 36.6875 C-3.97829927 24.79086939 -1.37346834 12.9033736 0 0 Z " fill="#1A737E" transform="translate(376,217)"/>
<path d="M0 0 C0.33 0 0.66 0 1 0 C1.02312269 11.19573244 1.04091471 22.39145924 1.05181217 33.58721066 C1.05704116 38.78528115 1.0641391 43.98333536 1.07543945 49.18139648 C1.08626776 54.19342268 1.09227671 59.20543318 1.09487724 64.21747017 C1.09673159 66.13412282 1.1003524 68.05077457 1.10573006 69.96742058 C1.11293975 72.64228072 1.11399097 75.31707514 1.11352539 77.99194336 C1.11712067 78.7925116 1.12071594 79.59307983 1.12442017 80.41790771 C1.11405216 85.88594784 1.11405216 85.88594784 0 87 C-5.89371452 87.37619454 -11.26302493 86.29283945 -17 85 C-13.48077851 83.06862682 -11.0379986 82.73080009 -7 83 C-6.67 83.33 -6.34 83.66 -6 84 C-4.35 84 -2.7 84 -1 84 C-0.67 56.28 -0.34 28.56 0 0 Z " fill="#50687D" transform="translate(356,85)"/>
<path d="M0 0 C1.71413086 0.00676758 1.71413086 0.00676758 3.46289062 0.01367188 C6.2461511 0.02531732 9.02929572 0.04167003 11.8125 0.0625 C11.8125 0.3925 11.8125 0.7225 11.8125 1.0625 C7.3575 1.5575 7.3575 1.5575 2.8125 2.0625 C4.1325 2.0625 5.4525 2.0625 6.8125 2.0625 C7.3075 3.5475 7.3075 3.5475 7.8125 5.0625 C-3.4075 4.7325 -14.6275 4.4025 -26.1875 4.0625 C-26.5175 3.4025 -26.8475 2.7425 -27.1875 2.0625 C-18.63615649 -0.78794784 -8.9074815 -0.06783671 0 0 Z " fill="#2698A4" transform="translate(206.1875,130.9375)"/>
<path d="M0 0 C0.33 0.66 0.66 1.32 1 2 C2.32399022 2.68503439 3.6599563 3.34692642 5 4 C8.10148707 6.03574118 11.15995287 8.12911488 14.22265625 10.22265625 C16.9225688 12.11030235 16.9225688 12.11030235 20 13 C20 14.32 20 15.64 20 17 C7.33029613 17.55353075 7.33029613 17.55353075 2 14 C2.598125 13.855625 3.19625 13.71125 3.8125 13.5625 C5.56150404 13.1127561 7.28677023 12.57107659 9 12 C6.74259377 9.66475218 4.7194239 7.81294927 2 6 C2.33 5.34 2.66 4.68 3 4 C2.01 4 1.02 4 0 4 C0 2.68 0 1.36 0 0 Z " fill="#199BA7" transform="translate(309,179)"/>
<path d="M0 0 C1.83594727 0.05994141 1.83594727 0.05994141 3.70898438 0.12109375 C10.40601514 0.38767808 16.57828184 1.04325865 23.0625 2.75 C23.0625 3.08 23.0625 3.41 23.0625 3.75 C6.8925 3.75 -9.2775 3.75 -25.9375 3.75 C-17.18646424 -0.62551788 -9.61379304 -0.4340085 0 0 Z " fill="#577E94" transform="translate(219.9375,113.25)"/>
<path d="M0 0 C1.60031344 3.20062687 0.03173691 5.72271806 -1 9 C-0.01 9.33 0.98 9.66 2 10 C1.19093245 12.31375405 0.37793083 14.62598948 -0.4375 16.9375 C-0.66759766 17.59685547 -0.89769531 18.25621094 -1.13476562 18.93554688 C-2.88671875 23.88671875 -2.88671875 23.88671875 -4 25 C-4.23678716 27.69235776 -4.42198025 30.36498156 -4.5625 33.0625 C-4.60568359 33.82111328 -4.64886719 34.57972656 -4.69335938 35.36132812 C-4.79973633 37.24065438 -4.90039934 39.12030244 -5 41 C-5.33 41 -5.66 41 -6 41 C-6.88247773 12.40432754 -6.88247773 12.40432754 -2 1 C-1.34 0.67 -0.68 0.34 0 0 Z " fill="#6388A3" transform="translate(182,68)"/>
<path d="M0 0 C6.46712188 1.16194152 12.09622349 3.1248748 18 6 C18 6.33 18 6.66 18 7 C16.18674449 6.88648483 14.37436643 6.75887039 12.5625 6.625 C11.04849609 6.52058594 11.04849609 6.52058594 9.50390625 6.4140625 C8.67761719 6.27742187 7.85132813 6.14078125 7 6 C6.67 5.34 6.34 4.68 6 4 C5.67 4.33 5.34 4.66 5 5 C4.01 5.495 4.01 5.495 3 6 C3 7.32 3 8.64 3 10 C5.64 9.67 8.28 9.34 11 9 C11.66 11.31 12.32 13.62 13 16 C9.2089881 14.55049545 5.6125362 12.84827434 2 11 C2 10.34 2 9.68 2 9 C1.401875 8.87625 0.80375 8.7525 0.1875 8.625 C-2 8 -2 8 -5 6 C-4.38125 5.71125 -3.7625 5.4225 -3.125 5.125 C-0.86674235 4.06279958 -0.86674235 4.06279958 1 2 C0.67 1.34 0.34 0.68 0 0 Z " fill="#16AEB9" transform="translate(244,137)"/>
<path d="M0 0 C0.33 0 0.66 0 1 0 C1.08160748 1.89510699 1.13946459 3.79124504 1.1875 5.6875 C1.22230469 6.74324219 1.25710937 7.79898438 1.29296875 8.88671875 C1 12 1 12 -0.46875 14.21875 C-2.85128927 18.54621928 -2.57315145 22.94778592 -2.6875 27.8125 C-2.72166016 28.79154297 -2.75582031 29.77058594 -2.79101562 30.77929688 C-2.87319858 33.18608345 -2.94244433 35.59251945 -3 38 C-3.33 38 -3.66 38 -4 38 C-5.99888809 28.57667045 -6.21867122 19.57293998 -6 10 C-4.35 9.67 -2.7 9.34 -1 9 C-0.67 6.03 -0.34 3.06 0 0 Z " fill="#13C6D1" transform="translate(174,190)"/>
<path d="M0 0 C1.875 0.25 1.875 0.25 4 1 C5.25 3.0625 5.25 3.0625 6 5 C6.66 5 7.32 5 8 5 C11.9307055 13.84408738 12.06641954 21.17974532 8.75390625 30.28515625 C8 32 8 32 7 33 C6.76807135 34.51469448 6.58784762 36.03754562 6.4375 37.5625 C6.35371094 38.38878906 6.26992187 39.21507812 6.18359375 40.06640625 C6.12300781 40.70449219 6.06242188 41.34257812 6 42 C5.67 42 5.34 42 5 42 C4.91839252 40.10489301 4.86053541 38.20875496 4.8125 36.3125 C4.77769531 35.25675781 4.74289063 34.20101562 4.70703125 33.11328125 C5.03905415 29.58498461 6.17342163 27.98216878 8 25 C8.56948052 21.88483253 8.56948052 21.88483253 8.6875 18.6875 C8.75324219 17.61886719 8.81898438 16.55023438 8.88671875 15.44921875 C8.92410156 14.64097656 8.96148437 13.83273438 9 13 C8.01 13 7.02 13 6 13 C6.33 10.69 6.66 8.38 7 6 C6.34 6 5.68 6 5 6 C5 5.34 5 4.68 5 4 C3.02 4 1.04 4 -1 4 C-0.67 2.68 -0.34 1.36 0 0 Z " fill="#25AFBA" transform="translate(166,177)"/>
<path d="M0 0 C1.32 0.33 2.64 0.66 4 1 C4 1.66 4 2.32 4 3 C7.63 3.33 11.26 3.66 15 4 C15.66 5.65 16.32 7.3 17 9 C15.68 9 14.36 9 13 9 C12.67 9.99 12.34 10.98 12 12 C8.83884224 10.63016497 8.0072908 10.0109362 6 7 C2.91634129 6.7497843 2.91634129 6.7497843 0 7 C0.185625 6.21625 0.37125 5.4325 0.5625 4.625 C1.25962266 2.02910225 1.25962266 2.02910225 0 0 Z " fill="#0CBCC6" transform="translate(247,140)"/>
<path d="M0 0 C0 5.28 0 10.56 0 16 C-0.66 16.33 -1.32 16.66 -2 17 C-2.495 10.565 -2.495 10.565 -3 4 C-3.99 4.33 -4.98 4.66 -6 5 C-6.99 5 -7.98 5 -9 5 C-11.39653619 5.15623519 -13.79231902 5.3242069 -16.1875 5.5 C-18.09595703 5.63921875 -18.09595703 5.63921875 -20.04296875 5.78125 C-21.50669922 5.88953125 -21.50669922 5.88953125 -23 6 C-19.32533812 4.00330873 -15.44657508 2.65740083 -11.5 1.3125 C-10.83613281 1.07466797 -10.17226563 0.83683594 -9.48828125 0.59179688 C-5.63809703 -0.71849536 -4.06735629 -1.01683907 0 0 Z " fill="#1A6D7B" transform="translate(401,210)"/>
<path d="M0 0 C1.32 0 2.64 0 4 0 C4.6761872 3.85255857 5.33923092 7.70726957 6 11.5625 C6.28617188 13.19155273 6.28617188 13.19155273 6.578125 14.85351562 C7.50674068 20.30913274 8.25413964 25.46452096 8 31 C7.34 31.33 6.68 31.66 6 32 C5.34752353 28.85550776 4.70427425 25.70919244 4.0625 22.5625 C3.78889648 21.24475586 3.78889648 21.24475586 3.50976562 19.90039062 C2.49559945 14.90331729 1.69488916 9.9708685 1.24389648 4.89038086 C1.03301725 2.77865925 1.03301725 2.77865925 0 0 Z " fill="#1FA8B0" transform="translate(139,215)"/>
<path d="M0 0 C1.98 0 3.96 0 6 0 C6 0.99 6 1.98 6 3 C6.99 3 7.98 3 9 3 C9.33 3.99 9.66 4.98 10 6 C10.99 6.33 11.98 6.66 13 7 C16 10.44444444 16 10.44444444 16 13 C13.36 12.67 10.72 12.34 8 12 C8 11.01 8 10.02 8 9 C7.01 9 6.02 9 5 9 C2 4.77777778 2 4.77777778 2 2 C1.34 2 0.68 2 0 2 C0 1.34 0 0.68 0 0 Z M-2 2 C-1.01 2.495 -1.01 2.495 0 3 C-0.99 3.495 -0.99 3.495 -2 4 C-2 3.34 -2 2.68 -2 2 Z " fill="#0EA4AF" transform="translate(303,180)"/>
<path d="M0 0 C0.33 0.66 0.66 1.32 1 2 C-4.75 7 -4.75 7 -7 7 C-7 7.66 -7 8.32 -7 9 C-8.782129 10.44074715 -10.62660276 11.80510649 -12.5 13.125 C-14.03140625 14.21167969 -14.03140625 14.21167969 -15.59375 15.3203125 C-16.3878125 15.87460937 -17.181875 16.42890625 -18 17 C-18.68707555 14.50935112 -19 12.62113708 -19 10 C-18.34 10 -17.68 10 -17 10 C-16.67 9.01 -16.34 8.02 -16 7 C-16 7.66 -16 8.32 -16 9 C-15.44570313 8.71125 -14.89140625 8.4225 -14.3203125 8.125 C-13.23363281 7.568125 -13.23363281 7.568125 -12.125 7 C-11.40570313 6.62875 -10.68640625 6.2575 -9.9453125 5.875 C-8 5 -8 5 -6 5 C-6 4.34 -6 3.68 -6 3 C-5.34 3 -4.68 3 -4 3 C-4 2.34 -4 1.68 -4 1 C-2.68 0.67 -1.36 0.34 0 0 Z " fill="#167B87" transform="translate(356,316)"/>
<path d="M0 0 C0.94101563 -0.01675781 1.88203125 -0.03351563 2.8515625 -0.05078125 C5.74312347 0.3654961 6.60050808 1.05567974 8.375 3.3125 C5.6952653 4.65236735 3.31182167 4.36190271 0.375 4.20703125 C-4.06557936 4.02489811 -6.2078799 4.24887509 -9.625 7.3125 C-14.09034653 9.49071782 -14.09034653 9.49071782 -17.625 8.3125 C-16.57012267 7.34578244 -15.50566719 6.38951255 -14.4375 5.4375 C-13.84582031 4.90382812 -13.25414062 4.37015625 -12.64453125 3.8203125 C-8.62495355 0.81923514 -4.96193295 0.02050386 0 0 Z " fill="#15A2A9" transform="translate(151.625,171.6875)"/>
<path d="M0 0 C0.33 0 0.66 0 1 0 C1.08564209 0.69561035 1.17128418 1.3912207 1.25952148 2.10791016 C1.65086849 5.28043693 2.04416642 8.45271894 2.4375 11.625 C2.57220703 12.71941406 2.70691406 13.81382812 2.84570312 14.94140625 C2.97783203 16.00488281 3.10996094 17.06835938 3.24609375 18.1640625 C3.36654053 19.13811035 3.4869873 20.1121582 3.61108398 21.11572266 C3.73942627 22.06753418 3.86776855 23.0193457 4 24 C4.13929932 25.08974121 4.27859863 26.17948242 4.42211914 27.30224609 C4.61281982 28.19250488 4.80352051 29.08276367 5 30 C5.66 30.33 6.32 30.66 7 31 C6.67 32.98 6.34 34.96 6 37 C3.10740831 35.55370416 3.02170686 34.06512057 2 31 C0.02587308 24.09963639 -0.24796639 17.58373922 -0.125 10.4375 C-0.11597656 9.42880859 -0.10695312 8.42011719 -0.09765625 7.38085938 C-0.07433356 4.92031543 -0.04160763 2.46029104 0 0 Z " fill="#557996" transform="translate(190,202)"/>
<path d="M0 0 C7.61490087 2.82380331 13.92164794 7.70092385 20 13 C19.01 13.33 18.02 13.66 17 14 C17 14.66 17 15.32 17 16 C16.01 16.33 15.02 16.66 14 17 C13 15 13 15 13 11 C11.11683841 9.89163577 11.11683841 9.89163577 9 9 C8.01 9.495 8.01 9.495 7 10 C6.34 9.01 5.68 8.02 5 7 C4.13375 6.154375 3.2675 5.30875 2.375 4.4375 C0 2 0 2 0 0 Z " fill="#4B6F8A" transform="translate(227,165)"/>
<path d="M0 0 C0.99 0.33 1.98 0.66 3 1 C3.495 4.465 3.495 4.465 4 8 C-8.87 8 -21.74 8 -35 8 C-34.67 7.34 -34.34 6.68 -34 6 C-23.11 6 -12.22 6 -1 6 C-1 5.34 -1 4.68 -1 4 C-0.34 3.67 0.32 3.34 1 3 C0.505 1.515 0.505 1.515 0 0 Z " fill="#23909E" transform="translate(345,430)"/>
<path d="M0 0 C1.8871875 0.0309375 1.8871875 0.0309375 3.8125 0.0625 C4.1425 1.0525 4.4725 2.0425 4.8125 3.0625 C5.8025 3.3925 6.7925 3.7225 7.8125 4.0625 C4.39423253 5.77163373 0.57895237 5.24708479 -3.1875 5.25 C-4.02023437 5.26224609 -4.85296875 5.27449219 -5.7109375 5.28710938 C-6.90589844 5.29000977 -6.90589844 5.29000977 -8.125 5.29296875 C-8.85589844 5.29707764 -9.58679688 5.30118652 -10.33984375 5.30541992 C-12.1875 5.0625 -12.1875 5.0625 -14.1875 3.0625 C-11.8775 3.0625 -9.5675 3.0625 -7.1875 3.0625 C-7.1875 2.4025 -7.1875 1.7425 -7.1875 1.0625 C-4.43671116 0.14557039 -2.82801087 -0.04636083 0 0 Z " fill="#159DAC" transform="translate(363.1875,197.9375)"/>
<path d="M0 0 C4.03620153 1.34540051 4.85167306 3.41945509 7 7 C8.68259038 12.04777113 9.08770783 17.36774704 7.0234375 22.36328125 C4.78252254 26.12334408 3.09149635 28.25149729 -1 30 C-1 29.34 -1 28.68 -1 28 C-0.34 28 0.32 28 1 28 C1 27.34 1 26.68 1 26 C1.66 26 2.32 26 3 26 C4.7861987 18.08969149 5.41442824 11.81138549 3 4 C2.34 4 1.68 4 1 4 C0.67 2.68 0.34 1.36 0 0 Z " fill="#1D6E7C" transform="translate(408,163)"/>
<path d="M0 0 C0.66 0 1.32 0 2 0 C2.474375 0.639375 2.94875 1.27875 3.4375 1.9375 C4.9091365 4.28372963 4.9091365 4.28372963 8 5 C7.67 6.98 7.34 8.96 7 11 C7.66 11.33 8.32 11.66 9 12 C8.67 12.66 8.34 13.32 8 14 C6.68 13.34 5.36 12.68 4 12 C4 11.34 4 10.68 4 10 C3.236875 9.731875 2.47375 9.46375 1.6875 9.1875 C-0.87380884 8.05575888 -2.19692938 7.08776599 -4 5 C-3.01 5 -2.02 5 -1 5 C-0.67 3.35 -0.34 1.7 0 0 Z " fill="#109DA6" transform="translate(274,158)"/>
<path d="M0 0 C0.66 0.33 1.32 0.66 2 1 C2 1.66 2 2.32 2 3 C0.04072937 4.7143618 -1.95880212 6.38405168 -4 8 C-4 6.02 -4 4.04 -4 2 C-3.34 1.67 -2.68 1.34 -2 1 C-1.34 1.33 -0.68 1.66 0 2 C0 1.34 0 0.68 0 0 Z M-6 6 C-3.8480563 9.22791555 -3.79913557 10.28400809 -4 14 C-2.02 14 -0.04 14 2 14 C2 14.66 2 15.32 2 16 C4.97 16.33 7.94 16.66 11 17 C11 17.33 11 17.66 11 18 C5.39 18 -0.22 18 -6 18 C-6 14.04 -6 10.08 -6 6 Z " fill="#1AC1C8" transform="translate(189,420)"/>
<path d="M0 0 C5.75334215 2.03059135 8.39221586 4.08029436 12 9 C11.34 9 10.68 9 10 9 C9.67 9.66 9.34 10.32 9 11 C6.5625 10.1875 6.5625 10.1875 4 9 C3.67 8.01 3.34 7.02 3 6 C2.21625 5.896875 1.4325 5.79375 0.625 5.6875 C-2 5 -2 5 -4 2 C-2.68 2 -1.36 2 0 2 C0 1.34 0 0.68 0 0 Z " fill="#187F8D" transform="translate(333,409)"/>
<path d="M0 0 C0.86625 0.2784375 0.86625 0.2784375 1.75 0.5625 C4.20692525 1.04023546 5.64397534 0.75729364 8 0 C9.15941038 3.47823115 8.70820884 5.45895578 8 9 C4.63295715 9.2295711 2.58629732 9.33943529 -0.375 7.625 C-0.91125 7.08875 -1.4475 6.5525 -2 6 C-2 5.34 -2 4.68 -2 4 C-1.34 4 -0.68 4 0 4 C0 2.68 0 1.36 0 0 Z " fill="#0DAAB6" transform="translate(259,148)"/>
<path d="M0 0 C-0.33 0.66 -0.66 1.32 -1 2 C-0.195625 2.144375 0.60875 2.28875 1.4375 2.4375 C4 3 4 3 5 4 C6.32 4 7.64 4 9 4 C9 3.34 9 2.68 9 2 C10.32 2.33 11.64 2.66 13 3 C7.95859836 5.81532819 3.77378925 7.5188509 -2 8 C-2.185625 7.360625 -2.37125 6.72125 -2.5625 6.0625 C-3.94246056 3.57873787 -3.94246056 3.57873787 -7.625 3.25 C-8.73875 3.1675 -9.8525 3.085 -11 3 C-11 2.67 -11 2.34 -11 2 C-9.54494642 1.47007308 -8.08581873 0.9513211 -6.625 0.4375 C-5.81289063 0.14746094 -5.00078125 -0.14257812 -4.1640625 -0.44140625 C-2 -1 -2 -1 0 0 Z " fill="#136E79" transform="translate(371,195)"/>
<path d="M0 0 C6.39108805 -0.399443 11.22203915 0.11101958 17 3 C17.71875 5.109375 17.71875 5.109375 18 7 C17.01 7.66 16.02 8.32 15 9 C13.2925002 7.71937515 11.62626404 6.38232443 10 5 C10 4.34 10 3.68 10 3 C9.01 3 8.02 3 7 3 C6.67 3.66 6.34 4.32 6 5 C3.98079663 3.69593116 1.98075027 2.36176581 0 1 C0 0.67 0 0.34 0 0 Z " fill="#6387A3" transform="translate(282,15)"/>
<path d="M0 0 C4.54811631 2.27405816 4.74303137 2.87452748 6.3125 7.4375 C6.65925781 8.40558594 7.00601563 9.37367188 7.36328125 10.37109375 C8 13 8 13 7 16 C5.35 15.67 3.7 15.34 2 15 C1.34 10.05 0.68 5.1 0 0 Z " fill="#13B6C1" transform="translate(176,246)"/>
<path d="M0 0 C0.33 0 0.66 0 1 0 C2.95829294 8.08961486 4.51917486 15.65474478 4 24 C3.67 22.68 3.34 21.36 3 20 C1.35 19.67 -0.3 19.34 -2 19 C-2 18.34 -2 17.68 -2 17 C-1.34 17 -0.68 17 0 17 C-0.17402344 16.30519531 -0.34804687 15.61039063 -0.52734375 14.89453125 C-1.05332633 11.67343131 -0.88327655 8.93090738 -0.5625 5.6875 C-0.46066406 4.61886719 -0.35882813 3.55023438 -0.25390625 2.44921875 C-0.17011719 1.64097656 -0.08632812 0.83273438 0 0 Z " fill="#1FADB5" transform="translate(171,219)"/>
<path d="M0 0 C0.66 0.99 1.32 1.98 2 3 C1.34 3.66 0.68 4.32 0 5 C0 5.33 0 5.66 0 6 C-5.26053037 6.31563182 -8.44573816 5.66590937 -13 3 C-12.67 2.34 -12.34 1.68 -12 1 C-8.025947 -0.16883912 -4.11656821 -0.31068439 0 0 Z " fill="#18B3C5" transform="translate(244,137)"/>
<path d="M0 0 C0.99 0 1.98 0 3 0 C6.30154358 7.32081403 7.11992762 12.96484966 7 21 C2.38 21 -2.24 21 -7 21 C-7 20.67 -7 20.34 -7 20 C-2.71 20 1.58 20 6 20 C5.57872639 17.68448903 5.13751879 15.37259645 4.6875 13.0625 C4.44386719 11.77472656 4.20023437 10.48695313 3.94921875 9.16015625 C3.47935547 7.59587891 3.47935547 7.59587891 3 6 C2.01 5.67 1.02 5.34 0 5 C0 3.35 0 1.7 0 0 Z " fill="#207581" transform="translate(343,418)"/>
<path d="M0 0 C0.70640625 0.03544922 1.4128125 0.07089844 2.140625 0.10742188 C5.79718316 0.33941941 7.63833001 0.61305334 10.75 2.6875 C0.95879681 3.44156186 -8.46094945 3.91348899 -18.25 2.6875 C-12.69889622 -1.01323586 -6.41155092 -0.43660748 0 0 Z " fill="#7C9AB6" transform="translate(270.25,12.3125)"/>
<path d="M0 0 C0 0.66 0 1.32 0 2 C-0.9075 2.12375 -1.815 2.2475 -2.75 2.375 C-5.8759073 2.80467317 -5.8759073 2.80467317 -7.9296875 4.0546875 C-12.48021169 6.13247402 -17.97280244 4.30635717 -22.5625 2.9375 C-23.7690625 2.4734375 -23.7690625 2.4734375 -25 2 C-25 1.67 -25 1.34 -25 1 C-21.58340864 0.83176554 -18.16671582 0.66568609 -14.75 0.5 C-13.78191406 0.45230469 -12.81382812 0.40460938 -11.81640625 0.35546875 C-10.41455078 0.28779297 -10.41455078 0.28779297 -8.984375 0.21875 C-8.12553711 0.17685547 -7.26669922 0.13496094 -6.38183594 0.09179688 C-4.25591553 0.00986308 -2.1274987 0 0 0 Z " fill="#1B7986" transform="translate(288,321)"/>
<path d="M0 0 C3.35433109 0.94933899 6.69246505 1.89748835 10 3 C10 3.66 10 4.32 10 5 C10.99 4.67 11.98 4.34 13 4 C15.03131672 5.28511874 17.03277992 6.61876037 19 8 C19.66 8 20.32 8 21 8 C21 8.66 21 9.32 21 10 C21.66 10.33 22.32 10.66 23 11 C22.67 11.66 22.34 12.32 22 13 C17.05 10.69 12.1 8.38 7 6 C7 5.34 7 4.68 7 4 C6.401875 3.896875 5.80375 3.79375 5.1875 3.6875 C2.71756736 2.91123545 1.67748765 1.92911079 0 0 Z " fill="#158188" transform="translate(202,332)"/>
<path d="M0 0 C0.66 0 1.32 0 2 0 C2 1.65 2 3.3 2 5 C2.99 5.33 3.98 5.66 5 6 C5.33 6.33 5.66 6.66 6 7 C6.99 6.34 7.98 5.68 9 5 C10.98362069 7.91708924 10.9876191 9.12380904 10.625 12.75 C10.41875 13.8225 10.2125 14.895 10 16 C9.01 16.33 8.02 16.66 7 17 C6.34 14.36 5.68 11.72 5 9 C4.34 9 3.68 9 3 9 C3 8.34 3 7.68 3 7 C2.34 7 1.68 7 1 7 C0.67 4.69 0.34 2.38 0 0 Z " fill="#11C1C9" transform="translate(158,275)"/>
<path d="M0 0 C13.86 0 27.72 0 42 0 C42 0.33 42 0.66 42 1 C29.79 1 17.58 1 5 1 C4.67 2.32 4.34 3.64 4 5 C3.01 5.495 3.01 5.495 2 6 C1.34 4.02 0.68 2.04 0 0 Z " fill="#1A96A2" transform="translate(291,410)"/>
<path d="M0 0 C2.99220268 1.36370299 5.29026529 2.94908083 7.75 5.125 C8.67039063 5.93324219 8.67039063 5.93324219 9.609375 6.7578125 C10.06828125 7.16773438 10.5271875 7.57765625 11 8 C10.67 8.66 10.34 9.32 10 10 C8.35 9.67 6.7 9.34 5 9 C5 8.01 5 7.02 5 6 C2.69 6 0.38 6 -2 6 C-2.33 4.68 -2.66 3.36 -3 2 C-2.01 1.34 -1.02 0.68 0 0 Z " fill="#15A5AB" transform="translate(204,290)"/>
<path d="M0 0 C0.66 0 1.32 0 2 0 C2 0.99 2 1.98 2 3 C1.34 3 0.68 3 0 3 C0 3.66 0 4.32 0 5 C0.66 5.33 1.32 5.66 2 6 C0.87895467 7.31587941 -0.24696965 8.62760353 -1.375 9.9375 C-2.31472656 11.03384766 -2.31472656 11.03384766 -3.2734375 12.15234375 C-5 14 -5 14 -7 15 C-6.73564694 8.65552665 -4.45527379 4.54981541 0 0 Z " fill="#6687A2" transform="translate(190,52)"/>
<path d="M0 0 C-0.33 2.64 -0.66 5.28 -1 8 C-1.99 7.34 -2.98 6.68 -4 6 C-6.28397032 6.34605611 -7.93409037 6.96704519 -10 8 C-10 6.68 -10 5.36 -10 4 C-13.3 3.67 -16.6 3.34 -20 3 C-20 2.67 -20 2.34 -20 2 C-18.41058594 1.90912109 -18.41058594 1.90912109 -16.7890625 1.81640625 C-15.40102779 1.73199873 -14.01300768 1.64735083 -12.625 1.5625 C-11.92632812 1.52318359 -11.22765625 1.48386719 -10.5078125 1.44335938 C-6.80315966 1.21181857 -3.59967549 0 0 0 Z " fill="#2C4A63" transform="translate(354,231)"/>
<path d="M0 0 C2.31 0 4.62 0 7 0 C7 0.66 7 1.32 7 2 C7.928125 2.0825 8.85625 2.165 9.8125 2.25 C13 3 13 3 14.875 5.0625 C15.431875 6.0215625 15.431875 6.0215625 16 7 C15.67 7.66 15.34 8.32 15 9 C9.26800429 7.53025751 4.66416601 4.55513098 0 1 C0 0.67 0 0.34 0 0 Z " fill="#37536D" transform="translate(321,159)"/>
<path d="M0 0 C0.33 0 0.66 0 1 0 C1.33 9.9 1.66 19.8 2 30 C3.65 30 5.3 30 7 30 C7 30.66 7 31.32 7 32 C5.00045254 32.04254356 2.99958364 32.04080783 1 32 C0 31 0 31 -0.11352539 28.04077148 C-0.10828857 26.74727783 -0.10305176 25.45378418 -0.09765625 24.12109375 C-0.0962413 23.4344313 -0.09482635 22.74776886 -0.09336853 22.04029846 C-0.08775479 19.83932199 -0.07520007 17.63844591 -0.0625 15.4375 C-0.05748676 13.94856917 -0.05292355 12.45963676 -0.04882812 10.97070312 C-0.03778093 7.31376925 -0.02050713 3.65689442 0 0 Z " fill="#587388" transform="translate(175,88)"/>
<path d="M0 0 C-1.75990784 5.91969002 -4.39694605 11.41634992 -7 17 C-7.33 17 -7.66 17 -8 17 C-8 14.36 -8 11.72 -8 9 C-7.34 9 -6.68 9 -6 9 C-6 6.36 -6 3.72 -6 1 C-3 0 -3 0 0 0 Z " fill="#19707D" transform="translate(392,263)"/>
<path d="M0 0 C2.64 0.33 5.28 0.66 8 1 C8.66 2.65 9.32 4.3 10 6 C10.66 6 11.32 6 12 6 C12 6.66 12 7.32 12 8 C10.02 8.33 8.04 8.66 6 9 C5.5875 8.195625 5.175 7.39125 4.75 6.5625 C3.26547669 3.85890282 3.26547669 3.85890282 0.8125 3.1875 C0.214375 3.125625 -0.38375 3.06375 -1 3 C-0.67 2.01 -0.34 1.02 0 0 Z " fill="#0BAEC0" transform="translate(272,154)"/>
<path d="M0 0 C5.24048417 0.32753026 9.37294164 3.38141608 13 7 C13.734375 9.19921875 13.734375 9.19921875 14 11 C10.6875 10.8125 10.6875 10.8125 7 10 C5.07828158 7.58235424 4 6.11532786 4 3 C2.68 2.34 1.36 1.68 0 1 C0 0.67 0 0.34 0 0 Z " fill="#607F9A" transform="translate(316,28)"/>
<path d="M0 0 C1.22589844 0.01353516 1.22589844 0.01353516 2.4765625 0.02734375 C3.41628906 0.04474609 3.41628906 0.04474609 4.375 0.0625 C4.705 1.3825 5.035 2.7025 5.375 4.0625 C3.95961283 4.40122513 2.54262037 4.73324624 1.125 5.0625 C0.33609375 5.248125 -0.4528125 5.43375 -1.265625 5.625 C-3.625 6.0625 -3.625 6.0625 -7.625 6.0625 C-7.25 3.625 -7.25 3.625 -6.625 1.0625 C-4.21954362 -0.14022819 -2.67503047 -0.03821472 0 0 Z " fill="#168F99" transform="translate(296.625,344.9375)"/>
<path d="M0 0 C-0.33 1.32 -0.66 2.64 -1 4 C-6.60563042 4.82622671 -11.42289352 5.06795656 -17 4 C-17 3.67 -17 3.34 -17 3 C-12.545 2.505 -12.545 2.505 -8 2 C-8 1.34 -8 0.68 -8 0 C-4.94736336 -0.98120464 -3.05263664 -0.98120464 0 0 Z " fill="#3C6C88" transform="translate(255,114)"/>
<path d="M0 0 C2.29648649 2.5614657 3 3.47967572 3 7 C3.99 7 4.98 7 6 7 C6 7.99 6 8.98 6 10 C2.2089881 8.55049545 -1.3874638 6.84827434 -5 5 C-5 4.34 -5 3.68 -5 3 C-5.66 2.67 -6.32 2.34 -7 2 C-2.25 0 -2.25 0 0 0 Z " fill="#1A8E9C" transform="translate(305,182)"/>
<path d="M0 0 C2.64 0.33 5.28 0.66 8 1 C8 2.32 8 3.64 8 5 C4.66954606 7.66436316 2.2225435 8.3619323 -2 8 C-1.67 7.34 -1.34 6.68 -1 6 C-0.34 6 0.32 6 1 6 C0.67 4.02 0.34 2.04 0 0 Z " fill="#1D7D8A" transform="translate(328,329)"/>
<path d="M0 0 C0.125 5.75 0.125 5.75 -1 8 C-1.99 8 -2.98 8 -4 8 C-4.33 8.99 -4.66 9.98 -5 11 C-5 10.34 -5 9.68 -5 9 C-5.99 8.67 -6.98 8.34 -8 8 C-6.75 4.5625 -6.75 4.5625 -5 1 C-3.0613406 0.14470909 -2.05081534 0 0 0 Z " fill="#168696" transform="translate(393,255)"/>
<path d="M0 0 C0 0.99 0 1.98 0 3 C0.66 3.33 1.32 3.66 2 4 C2.33 3.34 2.66 2.68 3 2 C3.33 3.65 3.66 5.3 4 7 C1.75 8.1875 1.75 8.1875 -1 9 C-3.3125 7.625 -3.3125 7.625 -5 6 C-4.67 4.35 -4.34 2.7 -4 1 C-2.68 0.67 -1.36 0.34 0 0 Z " fill="#13B1BF" transform="translate(139,207)"/>
<path d="M0 0 C0.66 0.99 1.32 1.98 2 3 C1.67 3.99 1.34 4.98 1 6 C-0.9375 6.5625 -0.9375 6.5625 -3 7 C-3.66 7.66 -4.32 8.32 -5 9 C-5.99 9 -6.98 9 -8 9 C-7.40107045 5.64599451 -6.32893158 3.50144503 -4 1 C-1.8125 0.25 -1.8125 0.25 0 0 Z " fill="#6385A3" transform="translate(201,41)"/>
<path d="M0 0 C0.66 0.33 1.32 0.66 2 1 C1.34 1.5775 0.68 2.155 0 2.75 C-2.44290923 4.99653977 -2.44290923 4.99653977 -2 9 C-2.99 9.33 -3.98 9.66 -5 10 C-5 10.66 -5 11.32 -5 12 C-5.99 12 -6.98 12 -8 12 C-8.33 13.98 -8.66 15.96 -9 18 C-10.25 16.4375 -10.25 16.4375 -11 14 C-8.48093386 8.19519542 -4.6058396 4.2565203 0 0 Z " fill="#1B9DA6" transform="translate(194,410)"/>
<path d="M0 0 C1.33855056 0.78281305 2.67073644 1.57651877 4 2.375 C5.11375 3.03628906 5.11375 3.03628906 6.25 3.7109375 C6.8275 4.13632813 7.405 4.56171875 8 5 C8 5.66 8 6.32 8 7 C10.475 7.99 10.475 7.99 13 9 C13 9.66 13 10.32 13 11 C13.99 11.33 14.98 11.66 16 12 C14.1875 12.625 14.1875 12.625 12 13 C11.01 12.34 10.02 11.68 9 11 C9 10.34 9 9.68 9 9 C8.4225 8.9175 7.845 8.835 7.25 8.75 C4.30367249 7.76789083 2.96972088 6.37724934 1 4 C0.38671875 1.86328125 0.38671875 1.86328125 0 0 Z " fill="#1C868F" transform="translate(280,155)"/>
<path d="M0 0 C13.6332574 -0.3690205 13.6332574 -0.3690205 20 2 C18 4 18 4 15.8359375 4.1953125 C14.61777344 4.16050781 14.61777344 4.16050781 13.375 4.125 C12.55773437 4.10695312 11.74046875 4.08890625 10.8984375 4.0703125 C10.27195313 4.04710937 9.64546875 4.02390625 9 4 C8.67 3.01 8.34 2.02 8 1 C7.236875 1.20625 6.47375 1.4125 5.6875 1.625 C3 2 3 2 0 0 Z " fill="#23CCD5" transform="translate(205,132)"/>
<path d="M0 0 C0.66 0 1.32 0 2 0 C2 0.66 2 1.32 2 2 C5.3 2 8.6 2 12 2 C12.33 2.66 12.66 3.32 13 4 C8.46298506 5.45184478 4.81938524 6.23509196 0 6 C0 4.02 0 2.04 0 0 Z " fill="#497799" transform="translate(177,112)"/>
<path d="M0 0 C0.33 0 0.66 0 1 0 C3.43326039 10.81838074 3.43326039 10.81838074 1.625 15.75 C1.08875 16.4925 0.5525 17.235 0 18 C-0.66 18 -1.32 18 -2 18 C-2.33 18.66 -2.66 19.32 -3 20 C-2.86722656 19.14277344 -2.73445313 18.28554687 -2.59765625 17.40234375 C-1.70230552 11.60543791 -0.81061436 5.80940292 0 0 Z " fill="#187B88" transform="translate(376,217)"/>
<path d="M0 0 C1.98 0.66 3.96 1.32 6 2 C6 2.99 6 3.98 6 5 C6.66 5.66 7.32 6.32 8 7 C6.02 7.99 6.02 7.99 4 9 C1.69 7.35 -0.62 5.7 -3 4 C-2.01 3.67 -1.02 3.34 0 3 C0 2.01 0 1.02 0 0 Z " fill="#365872" transform="translate(316,150)"/>
<path d="M0 0 C0.33 0 0.66 0 1 0 C1.125 2.375 1.125 2.375 1 5 C0.34 5.66 -0.32 6.32 -1 7 C-1.99 7 -2.98 7 -4 7 C-4 8.65 -4 10.3 -4 12 C-4.66 12 -5.32 12 -6 12 C-6 11.34 -6 10.68 -6 10 C-7.32 10.33 -8.64 10.66 -10 11 C-9.04882866 9.8274869 -8.08882991 8.66212985 -7.125 7.5 C-6.32449219 6.52546875 -6.32449219 6.52546875 -5.5078125 5.53125 C-5.01023437 5.0259375 -4.51265625 4.520625 -4 4 C-3.34 4 -2.68 4 -2 4 C-2 3.34 -2 2.68 -2 2 C-1.34 2 -0.68 2 0 2 C0 1.34 0 0.68 0 0 Z " fill="#186F79" transform="translate(344,289)"/>
<path d="M0 0 C-3.56430755 3.14985318 -6.40693504 5.5140084 -11 7 C-11 4.69 -11 2.38 -11 0 C-3.375 -1.125 -3.375 -1.125 0 0 Z " fill="#1B8C9B" transform="translate(388,216)"/>
<path d="M0 0 C0.99 0.495 0.99 0.495 2 1 C2.73075648 3.3140622 3.40138258 5.64828869 4 8 C5.65 8.33 7.3 8.66 9 9 C9 10.32 9 11.64 9 13 C6.75 12.875 6.75 12.875 4 12 C1.24254393 8.7953889 0.06422683 6.86706222 -0.25 2.625 C-0.12625 1.325625 -0.12625 1.325625 0 0 Z " fill="#43657E" transform="translate(205,258)"/>
<path d="M0 0 C0.66 0 1.32 0 2 0 C1.84402344 0.77085937 1.68804687 1.54171875 1.52734375 2.3359375 C1.33269531 3.33882812 1.13804687 4.34171875 0.9375 5.375 C0.74027344 6.37273437 0.54304688 7.37046875 0.33984375 8.3984375 C-0.24382952 10.97842539 -0.24382952 10.97842539 1 13 C-0.98 13.99 -0.98 13.99 -3 15 C-4.43410153 11.21180727 -3.51009497 8.93478721 -2.0625 5.25 C-1.49208984 3.77273437 -1.49208984 3.77273437 -0.91015625 2.265625 C-0.60980469 1.51796875 -0.30945313 0.7703125 0 0 Z " fill="#1F7E8C" transform="translate(374,235)"/>
<path d="M0 0 C5.18701457 0.31436452 8.5947359 3.30033267 12 7 C12 7.66 12 8.32 12 9 C11.01 9.33 10.02 9.66 9 10 C8.34 8.68 7.68 7.36 7 6 C5.68 6.33 4.36 6.66 3 7 C2.690625 6.21625 2.38125 5.4325 2.0625 4.625 C1.07124962 2.07669872 1.07124962 2.07669872 0 0 Z " fill="#496A81" transform="translate(246,180)"/>
<path d="M0 0 C2.52845528 1.26422764 2.76422764 2.52845528 4 5 C4.66 5.33 5.32 5.66 6 6 C6.33 5.34 6.66 4.68 7 4 C7 5.32 7 6.64 7 8 C6.34 8.66 5.68 9.32 5 10 C2.9375 9.75 2.9375 9.75 1 9 C-0.4783226 6.04335481 -0.06032783 3.25770263 0 0 Z " fill="#1EBFC8" transform="translate(152,260)"/>
<path d="M0 0 C0 0.66 0 1.32 0 2 C6.27 2 12.54 2 19 2 C19 2.33 19 2.66 19 3 C10.42 3 1.84 3 -7 3 C-7.33 2.34 -7.66 1.68 -8 1 C-5.07175348 0.02391783 -3.04386724 -0.08226668 0 0 Z " fill="#002533" transform="translate(187,132)"/>
<path d="M0 0 C2.31 0 4.62 0 7 0 C6.835 1.03125 6.67 2.0625 6.5 3.125 C6.06678152 6.48244326 5.91764297 9.62336157 6 13 C2.57068046 9.2440786 1.43570917 4.76533255 0 0 Z " fill="#139498" transform="translate(153,269)"/>
<path d="M0 0 C2.475 0.495 2.475 0.495 5 1 C5 1.66 5 2.32 5 3 C5.66 3 6.32 3 7 3 C7 5.64 7 8.28 7 11 C6.01 11 5.02 11 4 11 C2.5393715 8.35261084 2 7.10551666 2 4 C2.66 4 3.32 4 4 4 C4 3.34 4 2.68 4 2 C2.68 1.67 1.36 1.34 0 1 C0 0.67 0 0.34 0 0 Z " fill="#0CC6CF" transform="translate(166,180)"/>
<path d="M0 0 C3.25543229 0.34879632 4.01873107 1.02133261 6.25 3.5625 C6.8275 4.366875 7.405 5.17125 8 6 C8.66 5.67 9.32 5.34 10 5 C11 8 11 8 10.0625 10.1875 C9.711875 10.785625 9.36125 11.38375 9 12 C7.49707257 10.18992669 5.99772829 8.37687764 4.5 6.5625 C3.6646875 5.55316406 2.829375 4.54382813 1.96875 3.50390625 C0 1 0 1 0 0 Z " fill="#365470" transform="translate(210,270)"/>
<path d="M0 0 C0.33 0.33 0.66 0.66 1 1 C2.99958364 1.04080783 5.00045254 1.04254356 7 1 C7 1.99 7 2.98 7 4 C1.08739655 4.25706972 -4.23918159 3.2982126 -10 2 C-6.48077851 0.06862682 -4.0379986 -0.26919991 0 0 Z " fill="#38586D" transform="translate(349,168)"/>
<path d="M0 0 C-1 3 -1 3 -3.5 4.4375 C-6.17441018 5.72427115 -6.17441018 5.72427115 -6.625 8.125 C-6.74875 8.74375 -6.8725 9.3625 -7 10 C-7.99 10.33 -8.98 10.66 -10 11 C-10.66 9.68 -11.32 8.36 -12 7 C-8.25 4 -8.25 4 -6 4 C-5.67 3.01 -5.34 2.02 -5 1 C-2 0 -2 0 0 0 Z " fill="#688FAF" transform="translate(230,21)"/>
<path d="M0 0 C2.41835897 0.08722937 4.83313316 0.19411373 7.25 0.3125 C7.93191406 0.33505859 8.61382812 0.35761719 9.31640625 0.38085938 C13.45151296 0.60166604 15.97914434 1.09593 19 4 C14.38784308 5.40216625 11.22769598 4.46274736 6.6875 3.0625 C5.43324219 2.68222656 4.17898437 2.30195313 2.88671875 1.91015625 C1.93410156 1.60980469 0.98148438 1.30945313 0 1 C0 0.67 0 0.34 0 0 Z " fill="#1E8A94" transform="translate(226,345)"/>
<path d="M0 0 C2.31 0 4.62 0 7 0 C7.33 0.99 7.66 1.98 8 3 C6.35 4.32 4.7 5.64 3 7 C2.34 6.67 1.68 6.34 1 6 C0.375 2.9375 0.375 2.9375 0 0 Z " fill="#0FADB7" transform="translate(217,307)"/>
<path d="M0 0 C0.33 0.66 0.66 1.32 1 2 C2.64363134 2.72159424 4.31050386 3.39351421 6 4 C2.79663178 6.83374881 0.21912747 7.5205537 -4 8 C-4 6.68 -4 5.36 -4 4 C-3.01 4 -2.02 4 -1 4 C-0.67 2.68 -0.34 1.36 0 0 Z " fill="#274660" transform="translate(297,296)"/>
<path d="M0 0 C1.98 0 3.96 0 6 0 C6 0.66 6 1.32 6 2 C9.3 1.67 12.6 1.34 16 1 C13 4 13 4 10.15234375 4.0390625 C9.09144531 3.90242187 8.03054688 3.76578125 6.9375 3.625 C2.82500094 2.91641349 2.82500094 2.91641349 -1 4 C-0.67 2.68 -0.34 1.36 0 0 Z " fill="#207380" transform="translate(387,193)"/>
<path d="M0 0 C1.32 0 2.64 0 4 0 C4 0.66 4 1.32 4 2 C6.64 1.67 9.28 1.34 12 1 C12.66 3.31 13.32 5.62 14 8 C10.2089881 6.55049545 6.6125362 4.84827434 3 3 C3 2.34 3 1.68 3 1 C2.01 0.67 1.02 0.34 0 0 Z " fill="#15878E" transform="translate(243,145)"/>
<path d="M0 0 C0 0.66 0 1.32 0 2 C-0.66 2 -1.32 2 -2 2 C-2 2.66 -2 3.32 -2 4 C-3.65 4.33 -5.3 4.66 -7 5 C-7 4.34 -7 3.68 -7 3 C-8.98 3.33 -10.96 3.66 -13 4 C-12.67 3.01 -12.34 2.02 -12 1 C-7.9472484 0.01751476 -4.16138263 -0.08159574 0 0 Z " fill="#6E8EA9" transform="translate(249,15)"/>
<path d="M0 0 C1.65 0 3.3 0 5 0 C5 1.98 5 3.96 5 6 C2 7 2 7 -0.1875 6.0625 C-0.785625 5.711875 -1.38375 5.36125 -2 5 C-2 4.01 -2 3.02 -2 2 C-1.34 2 -0.68 2 0 2 C0 1.34 0 0.68 0 0 Z " fill="#13ADB5" transform="translate(186,313)"/>
<path d="M0 0 C0.33 0.66 0.66 1.32 1 2 C2.31903157 2.69453432 3.65557572 3.35599256 5 4 C6.59699597 5.02059676 8.18018683 6.06306756 9.75 7.125 C10.94882812 7.93324219 10.94882812 7.93324219 12.171875 8.7578125 C12.77515625 9.16773438 13.3784375 9.57765625 14 10 C13.01 10.33 12.02 10.66 11 11 C10.34 10.67 9.68 10.34 9 10 C9 9.34 9 8.68 9 8 C6.69 7.67 4.38 7.34 2 7 C2.33 6.01 2.66 5.02 3 4 C2.01 4 1.02 4 0 4 C0 2.68 0 1.36 0 0 Z " fill="#1E7D8E" transform="translate(309,179)"/>
<path d="M0 0 C0.66 0.33 1.32 0.66 2 1 C2 1.66 2 2.32 2 3 C2.66 3.33 3.32 3.66 4 4 C3.67 5.32 3.34 6.64 3 8 C1.35 7.67 -0.3 7.34 -2 7 C-2.33 5.02 -2.66 3.04 -3 1 C-2.01 0.67 -1.02 0.34 0 0 Z " fill="#148998" transform="translate(348,288)"/>
<path d="M0 0 C2.64 0.99 5.28 1.98 8 3 C8 4.98 8 6.96 8 9 C4.535 7.02 4.535 7.02 1 5 C1.33 4.34 1.66 3.68 2 3 C1.34 2.67 0.68 2.34 0 2 C0 1.34 0 0.68 0 0 Z " fill="#3B5D75" transform="translate(292,134)"/>
<path d="M0 0 C1.24200301 2.48400602 0.98221651 3.82207636 0.6875 6.5625 C0.56955078 7.77099609 0.56955078 7.77099609 0.44921875 9.00390625 C0.30097656 9.66261719 0.15273437 10.32132813 0 11 C-0.99 11.495 -0.99 11.495 -2 12 C-2.66 12.99 -3.32 13.98 -4 15 C-4.20705455 9.92716361 -3.72487541 5.79132057 -2 1 C-1.34 0.67 -0.68 0.34 0 0 Z " fill="#69879C" transform="translate(182,68)"/>
<path d="M0 0 C0.75539062 0.02578125 1.51078125 0.0515625 2.2890625 0.078125 C3.07925781 0.10390625 3.86945313 0.1296875 4.68359375 0.15625 C7.15501314 0.34669212 9.51294187 0.70848097 11.9140625 1.328125 C11.9140625 1.658125 11.9140625 1.988125 11.9140625 2.328125 C3.4990625 2.823125 3.4990625 2.823125 -5.0859375 3.328125 C-2.0859375 0.328125 -2.0859375 0.328125 0 0 Z " fill="#496A80" transform="translate(187.0859375,115.671875)"/>
<path d="M0 0 C1.65 0.33 3.3 0.66 5 1 C5 1.66 5 2.32 5 3 C4.34 3 3.68 3 3 3 C3 3.66 3 4.32 3 5 C1.02 5.66 -0.96 6.32 -3 7 C-3.66 6.34 -4.32 5.68 -5 5 C-4.34 5 -3.68 5 -3 5 C-3 4.34 -3 3.68 -3 3 C-2.01 3 -1.02 3 0 3 C0 2.01 0 1.02 0 0 Z " fill="#294B63" transform="translate(311,290)"/>
<path d="M0 0 C1.58624235 0.42683239 3.1689098 0.86696158 4.75 1.3125 C6.07257813 1.67794922 6.07257813 1.67794922 7.421875 2.05078125 C10.05772505 3.02125331 11.85407326 4.21005644 14 6 C10.27182653 5.93037367 6.65557149 5.76562117 3 5 C0.8125 2.4375 0.8125 2.4375 0 0 Z " fill="#1B888D" transform="translate(248,138)"/>
<path d="M0 0 C0.66 0.66 1.32 1.32 2 2 C2.66 2 3.32 2 4 2 C3.67 2.99 3.34 3.98 3 5 C2.34 5 1.68 5 1 5 C1 5.66 1 6.32 1 7 C-1.97 6.505 -1.97 6.505 -5 6 C-3.35 4.02 -1.7 2.04 0 0 Z M4 1 C7 2 7 2 7 2 Z " fill="#547892" transform="translate(203,36)"/>
<path d="M0 0 C2.64 0 5.28 0 8 0 C9.125 3.75 9.125 3.75 8 6 C4.63408134 4.55746343 2.48952921 2.66735273 0 0 Z " fill="#128E97" transform="translate(194,326)"/>
<path d="M0 0 C0.33 0.99 0.66 1.98 1 3 C0.21625 2.814375 -0.5675 2.62875 -1.375 2.4375 C-3.97089775 1.74037734 -3.97089775 1.74037734 -6 3 C-8.69565202 2.83219837 -11.32405554 2.38844355 -14 2 C-10.7787416 -1.2212584 -4.23579067 -2.03317952 0 0 Z " fill="#22CFD6" transform="translate(159,173)"/>
<path d="M0 0 C3.96755407 2.18899535 5.04683426 4.92034001 6.58203125 8.96484375 C7.0624754 11.30420263 6.7389838 12.752886 6 15 C4.99539469 12.87717331 3.99644398 10.75166979 3 8.625 C2.443125 7.44164063 1.88625 6.25828125 1.3125 5.0390625 C0 2 0 2 0 0 Z " fill="#6D88A2" transform="translate(345,58)"/>
<path d="M0 0 C2.31 0.33 4.62 0.66 7 1 C7 1.66 7 2.32 7 3 C7.9590625 3.1546875 7.9590625 3.1546875 8.9375 3.3125 C9.618125 3.539375 10.29875 3.76625 11 4 C11.33 4.99 11.66 5.98 12 7 C9.69 6.67 7.38 6.34 5 6 C5 5.01 5 4.02 5 3 C3.35 2.67 1.7 2.34 0 2 C0 1.34 0 0.68 0 0 Z " fill="#6B8EAA" transform="translate(303,21)"/>
<path d="M0 0 C0.33 0.66 0.66 1.32 1 2 C1.66 2 2.32 2 3 2 C3.33 3.98 3.66 5.96 4 8 C2.35 8 0.7 8 -1 8 C-2.2077558 4.37673261 -1.54311128 3.35853631 0 0 Z " fill="#10B8C2" transform="translate(195,280)"/>
<path d="M0 0 C0.91007813 0.00902344 1.82015625 0.01804687 2.7578125 0.02734375 C3.45648438 0.03894531 4.15515625 0.05054688 4.875 0.0625 C1.5365409 2.76955488 -0.82874369 3.57428906 -5.125 4.0625 C-5.785 3.0725 -6.445 2.0825 -7.125 1.0625 C-4.60024538 -0.19987731 -2.81299534 -0.03606404 0 0 Z " fill="#07B7BF" transform="translate(205.125,410.9375)"/>
<path d="M0 0 C5.75 -0.125 5.75 -0.125 8 1 C7.67 1.66 7.34 2.32 7 3 C4.35139573 3.59355614 1.70802678 3.74209269 -1 4 C-1.33 3.34 -1.66 2.68 -2 2 C-1.34 2 -0.68 2 0 2 C0 1.34 0 0.68 0 0 Z " fill="#109CA6" transform="translate(263,324)"/>
<path d="M0 0 C0.33 0.66 0.66 1.32 1 2 C1.99 2.33 2.98 2.66 4 3 C3.01 5.64 2.02 8.28 1 11 C0.01 10.67 -0.98 10.34 -2 10 C-2 9.01 -2 8.02 -2 7 C-1.34 7 -0.68 7 0 7 C-0.185625 6.030625 -0.37125 5.06125 -0.5625 4.0625 C-0.706875 3.051875 -0.85125 2.04125 -1 1 C-0.67 0.67 -0.34 0.34 0 0 Z " fill="#12828D" transform="translate(372,288)"/>
<path d="M0 0 C1.875 0.25 1.875 0.25 4 1 C5.25 3.0625 5.25 3.0625 6 5 C6.66 5 7.32 5 8 5 C8.66 6.98 9.32 8.96 10 11 C9.01 10.34 8.02 9.68 7 9 C7 8.01 7 7.02 7 6 C6.34 6 5.68 6 5 6 C5 5.34 5 4.68 5 4 C3.02 4 1.04 4 -1 4 C-0.67 2.68 -0.34 1.36 0 0 Z " fill="#1A939A" transform="translate(166,177)"/>
<path d="M0 0 C6.06892629 -0.25287193 11.16200408 0.30167391 17 2 C16.67 2.66 16.34 3.32 16 4 C15.34773437 3.86722656 14.69546875 3.73445312 14.0234375 3.59765625 C9.3591713 2.65517178 4.70131546 1.74231297 0 1 C0 0.67 0 0.34 0 0 Z " fill="#167A84" transform="translate(215,136)"/>
<path d="M0 0 C2.64 1.98 5.28 3.96 8 6 C6.02 6.99 6.02 6.99 4 8 C3.34 7.67 2.68 7.34 2 7 C2 6.01 2 5.02 2 4 C1.01 3.67 0.02 3.34 -1 3 C-0.67 2.01 -0.34 1.02 0 0 Z " fill="#1C8F9F" transform="translate(216,300)"/>
<path d="M0 0 C1.32 0.33 2.64 0.66 4 1 C4 3.31 4 5.62 4 8 C3.01 7.67 2.02 7.34 1 7 C1 6.01 1 5.02 1 4 C0.01 4 -0.98 4 -2 4 C-1.34 2.68 -0.68 1.36 0 0 Z " fill="#0EBFC6" transform="translate(172,296)"/>
<path d="M0 0 C2.48862878 3.23521742 4.75421558 6.59260295 7 10 C6.67 10.66 6.34 11.32 6 12 C2.64521544 8.91006686 0.20758194 6.46805317 -1 2 C-0.67 1.34 -0.34 0.68 0 0 Z " fill="#21949C" transform="translate(184,260)"/>
<path d="M0 0 C1.98 0.99 1.98 0.99 4 2 C4.75 5.625 4.75 5.625 5 9 C3.68 9 2.36 9 1 9 C0.67 6.03 0.34 3.06 0 0 Z " fill="#1AAFB8" transform="translate(176,246)"/>
<path d="M0 0 C0.66 0.33 1.32 0.66 2 1 C0.125 6.875 0.125 6.875 -1 8 C-1.23192865 9.51469448 -1.41215238 11.03754562 -1.5625 12.5625 C-1.64628906 13.38878906 -1.73007813 14.21507812 -1.81640625 15.06640625 C-1.87699219 15.70449219 -1.93757812 16.34257812 -2 17 C-2.33 17 -2.66 17 -3 17 C-3.08160748 15.10489301 -3.13946459 13.20875496 -3.1875 11.3125 C-3.22230469 10.25675781 -3.25710937 9.20101562 -3.29296875 8.11328125 C-2.96666615 4.64577232 -1.99030125 2.81567552 0 0 Z " fill="#157B85" transform="translate(174,202)"/>
<path d="M0 0 C0 0.99 0 1.98 0 3 C-4.62 3.33 -9.24 3.66 -14 4 C-9.42715431 1.71357715 -5.15703284 0 0 0 Z " fill="#1A6670" transform="translate(392,212)"/>
<path d="M0 0 C0 0.66 0 1.32 0 2 C-0.66 2 -1.32 2 -2 2 C-2.33 3.32 -2.66 4.64 -3 6 C-3.66 6 -4.32 6 -5 6 C-5.33 7.32 -5.66 8.64 -6 10 C-6.66 9.67 -7.32 9.34 -8 9 C-6.68994234 5.06982701 -4.75047804 0 0 0 Z " fill="#1F7984" transform="translate(388,162)"/>
<path d="M0 0 C1.65 0.33 3.3 0.66 5 1 C4.67 1.66 4.34 2.32 4 3 C3.01 3 2.02 3 1 3 C1 3.66 1 4.32 1 5 C-0.65 5.33 -2.3 5.66 -4 6 C-3.34 4.68 -2.68 3.36 -2 2 C-1.34 2 -0.68 2 0 2 C0 1.34 0 0.68 0 0 Z " fill="#59829F" transform="translate(198,153)"/>
<path d="M0 0 C2.62374802 5.24749603 3.09534716 8.08847633 3 14 C0.73560813 11.73560813 0.48211484 10.62863112 -0.1875 7.5625 C-0.36667969 6.78003906 -0.54585938 5.99757813 -0.73046875 5.19140625 C-1 3 -1 3 0 0 Z " fill="#5F7D91" transform="translate(352,70)"/>
<path d="M0 0 C3.79598549 1.49128001 5.71720399 3.65733441 8 7 C8 7.99 8 8.98 8 10 C7.34 10 6.68 10 6 10 C4.4921875 8.3203125 4.4921875 8.3203125 2.875 6.125 C2.33617187 5.40570313 1.79734375 4.68640625 1.2421875 3.9453125 C0 2 0 2 0 0 Z " fill="#6A84A2" transform="translate(335,44)"/>
<path d="M0 0 C1.32 0 2.64 0 4 0 C4 1.98 4 3.96 4 6 C3.01 6.495 3.01 6.495 2 7 C0 6 0 6 -0.6875 4.0625 C-1 2 -1 2 0 0 Z " fill="#0FB7C0" transform="translate(194,320)"/>
<path d="M0 0 C0.33 0.99 0.66 1.98 1 3 C0.030625 3.28875 -0.93875 3.5775 -1.9375 3.875 C-5.10664203 4.64214682 -5.10664203 4.64214682 -6 7 C-7.65 7 -9.3 7 -11 7 C-9.59257978 4.18515955 -7.74442408 3.72516601 -4.9375 2.375 C-4.01839844 1.92898438 -3.09929687 1.48296875 -2.15234375 1.0234375 C-1.44207031 0.68570312 -0.73179687 0.34796875 0 0 Z " fill="#16676F" transform="translate(321,308)"/>
<path d="M0 0 C0.66 0 1.32 0 2 0 C2 0.66 2 1.32 2 2 C2.66 2 3.32 2 4 2 C5.25664978 4.90600261 6 6.79604584 6 10 C6.66 10 7.32 10 8 10 C7.67 10.99 7.34 11.98 7 13 C7 12.34 7 11.68 7 11 C6.34 11 5.68 11 5 11 C4.16426177 9.35538655 3.33147118 7.70927487 2.5 6.0625 C2.0359375 5.14597656 1.571875 4.22945313 1.09375 3.28515625 C0 1 0 1 0 0 Z " fill="#158286" transform="translate(159,282)"/>
<path d="M0 0 C0.99 0.33 1.98 0.66 3 1 C3 1.66 3 2.32 3 3 C3.99 3.33 4.98 3.66 6 4 C3.69 4.33 1.38 4.66 -1 5 C-1.33 3.68 -1.66 2.36 -2 1 C-1.34 0.67 -0.68 0.34 0 0 Z " fill="#1B90A2" transform="translate(365,198)"/>
<path d="M0 0 C0.33 0.66 0.66 1.32 1 2 C0.67 2.66 0.34 3.32 0 4 C-2 4.66666667 -4 5.33333333 -6 6 C-6.33 6.66 -6.66 7.32 -7 8 C-7 6.35 -7 4.7 -7 3 C-4.69 2.01 -2.38 1.02 0 0 Z " fill="#0FCFD5" transform="translate(141,178)"/>
<path d="M0 0 C2.64 0.33 5.28 0.66 8 1 C8 1.66 8 2.32 8 3 C1.25 4.125 1.25 4.125 -1 3 C-0.67 2.01 -0.34 1.02 0 0 Z " fill="#15B7C4" transform="translate(272,154)"/>
<path d="M0 0 C0.33 0.99 0.66 1.98 1 3 C-1.31 3 -3.62 3 -6 3 C-6 2.34 -6 1.68 -6 1 C-6.99 0.67 -7.98 0.34 -9 0 C-5.69903842 -0.8252404 -3.1967 -1.37001429 0 0 Z " fill="#08C7D0" transform="translate(241,138)"/>
<path d="M0 0 C2.64 0.33 5.28 0.66 8 1 C8.33 1.99 8.66 2.98 9 4 C6.36 4.33 3.72 4.66 1 5 C0.67 3.35 0.34 1.7 0 0 Z " fill="#118D98" transform="translate(328,329)"/>
<path d="M0 0 C0 0.99 0 1.98 0 3 C-3.62326739 4.2077558 -4.64146369 3.54311128 -8 2 C-7 0 -7 0 -5.125 -0.6875 C-3 -1 -3 -1 0 0 Z " fill="#10B1BB" transform="translate(216,300)"/>
<path d="M0 0 C4.75 -0.125 4.75 -0.125 7 1 C6.67 2.32 6.34 3.64 6 5 C5.38125 4.814375 4.7625 4.62875 4.125 4.4375 C1.95839822 3.76313824 1.95839822 3.76313824 0 5 C0 3.35 0 1.7 0 0 Z " fill="#2B516D" transform="translate(233,290)"/>
<path d="M0 0 C0.66 0.99 1.32 1.98 2 3 C1.125 6.6875 1.125 6.6875 0 10 C-2 8 -2 8 -2.25 5 C-2 2 -2 2 0 0 Z " fill="#284A64" transform="translate(346,247)"/>
<path d="M0 0 C0.66 0 1.32 0 2 0 C1.67 0.66 1.34 1.32 1 2 C0.67 1.34 0.34 0.68 0 0 Z M-1 1 C-0.67 1 -0.34 1 0 1 C0.12375 1.94875 0.2475 2.8975 0.375 3.875 C0.71687177 7.08667191 0.71687177 7.08667191 3 9 C2.625 11.625 2.625 11.625 2 14 C-2.09836066 7.85245902 -2.09836066 7.85245902 -1.625 3.75 C-1.41875 2.8425 -1.2125 1.935 -1 1 Z " fill="#0EC7CE" transform="translate(148,239)"/>
<path d="M0 0 C2.78650641 0.29331646 4.56342536 0.66880545 6.8125 2.375 C8 4 8 4 8 7 C6 7 6 7 4.0625 5.125 C3.381875 4.42375 2.70125 3.7225 2 3 C1.01 2.34 0.02 1.68 -1 1 C-0.67 0.67 -0.34 0.34 0 0 Z " fill="#446279" transform="translate(264,195)"/>
<path d="M0 0 C1.98 0 3.96 0 6 0 C6.66 1.32 7.32 2.64 8 4 C7.34 4.66 6.68 5.32 6 6 C3.97945196 4.35830472 1.97956942 2.69088222 0 1 C0 0.67 0 0.34 0 0 Z " fill="#1991A4" transform="translate(263,157)"/>
<path d="M0 0 C0.99 0.33 1.98 0.66 3 1 C3 2.98 3 4.96 3 7 C0.69 7 -1.62 7 -4 7 C-3.01 6.67 -2.02 6.34 -1 6 C-1 5.34 -1 4.68 -1 4 C-0.34 3.67 0.32 3.34 1 3 C0.67 2.01 0.34 1.02 0 0 Z " fill="#138698" transform="translate(345,430)"/>
<path d="M0 0 C1.258125 -0.04125 2.51625 -0.0825 3.8125 -0.125 C4.52019531 -0.14820313 5.22789062 -0.17140625 5.95703125 -0.1953125 C8 0 8 0 11 2 C11 2.66 11 3.32 11 4 C8.36 3.67 5.72 3.34 3 3 C3 2.34 3 1.68 3 1 C2.01 0.67 1.02 0.34 0 0 Z " fill="#1DA9AC" transform="translate(222,342)"/>
<path d="M0 0 C0.33 0 0.66 0 1 0 C1.3125 2.3125 1.3125 2.3125 1 5 C-1.5 6.8125 -1.5 6.8125 -4 8 C-4.66 7.34 -5.32 6.68 -6 6 C-4 4 -2 2 0 0 Z " fill="#2A4C66" transform="translate(324,281)"/>
<path d="M0 0 C0 2.31 0 4.62 0 7 C-0.33 5.68 -0.66 4.36 -1 3 C-2.65 2.67 -4.3 2.34 -6 2 C-6 1.34 -6 0.68 -6 0 C-3.50907189 -1.24546405 -2.58919267 -0.7767578 0 0 Z " fill="#16C3CC" transform="translate(175,236)"/>
<path d="M0 0 C2.4375 0.875 2.4375 0.875 4.4375 4.875 C1.1375 3.885 -2.1625 2.895 -5.5625 1.875 C-2.5625 -0.125 -2.5625 -0.125 0 0 Z " fill="#1B8390" transform="translate(324.5625,195.125)"/>
<path d="M0 0 C0.33 0 0.66 0 1 0 C1.33 1.98 1.66 3.96 2 6 C0.68 6.33 -0.64 6.66 -2 7 C-2 7.66 -2 8.32 -2 9 C-2.66 9 -3.32 9 -4 9 C-2.94124926 5.59687262 -1.99097846 2.98646769 0 0 Z " fill="#18A1A6" transform="translate(133,181)"/>
<path d="M0 0 C0.33 0.99 0.66 1.98 1 3 C1.66 3.33 2.32 3.66 3 4 C2.67 5.98 2.34 7.96 2 10 C1.34 9.67 0.68 9.34 0 9 C-0.73075648 6.6859378 -1.40138258 4.35171131 -2 2 C-1.34 1.34 -0.68 0.68 0 0 Z " fill="#4B6E87" transform="translate(194,229)"/>
<path d="M0 0 C1.2065625 0.0309375 1.2065625 0.0309375 2.4375 0.0625 C2.4375 0.7225 2.4375 1.3825 2.4375 2.0625 C3.0975 2.0625 3.7575 2.0625 4.4375 2.0625 C4.1075 3.0525 3.7775 4.0425 3.4375 5.0625 C2.81875 4.711875 2.2 4.36125 1.5625 4 C0.86125 3.690625 0.16 3.38125 -0.5625 3.0625 C-1.5525 3.5575 -1.5525 3.5575 -2.5625 4.0625 C-2.8925 3.0725 -3.2225 2.0825 -3.5625 1.0625 C-2.5625 0.0625 -2.5625 0.0625 0 0 Z " fill="#597791" transform="translate(331.5625,39.9375)"/>
<path d="M0 0 C4.29 0.66 8.58 1.32 13 2 C11.68 2.33 10.36 2.66 9 3 C9 3.66 9 4.32 9 5 C8.34 4.67 7.68 4.34 7 4 C6.175 3.87625 5.35 3.7525 4.5 3.625 C2 3 2 3 0 0 Z " fill="#20A7B3" transform="translate(254,321)"/>
<path d="M0 0 C2.475 0.495 2.475 0.495 5 1 C6 4 6 4 5 7 C3.5 5.625 3.5 5.625 2 4 C2 3.34 2 2.68 2 2 C1.34 2 0.68 2 0 2 C0 1.34 0 0.68 0 0 Z " fill="#159295" transform="translate(178,310)"/>
<path d="M0 0 C1.98 0 3.96 0 6 0 C6.33 0.66 6.66 1.32 7 2 C5.68 3.32 4.36 4.64 3 6 C2.01 4.02 1.02 2.04 0 0 Z " fill="#254762" transform="translate(328,272)"/>
<path d="M0 0 C2.09970981 3.9171057 2.99334562 7.68576696 4 12 C2 11.0625 2 11.0625 0 9 C-0.36475845 5.97465051 -0.22893297 3.03336186 0 0 Z " fill="#209FA5" transform="translate(175,236)"/>
<path d="M0 0 C0 3 0 3 -1 6 C-2.32 5.67 -3.64 5.34 -5 5 C-4.67 3.68 -4.34 2.36 -4 1 C-2.68 0.67 -1.36 0.34 0 0 Z " fill="#0ECFD4" transform="translate(139,207)"/>
<path d="M0 0 C2.64 0 5.28 0 8 0 C8.33 0.99 8.66 1.98 9 3 C6.03 3 3.06 3 0 3 C0 2.01 0 1.02 0 0 Z " fill="#51738B" transform="translate(205,156)"/>
<path d="M0 0 C0.66 0.66 1.32 1.32 2 2 C1.01 4.31 0.02 6.62 -1 9 C-1.66 8.67 -2.32 8.34 -3 8 C-2.74438677 5.6568787 -2.40729228 3.32156597 -2 1 C-1.34 0.67 -0.68 0.34 0 0 Z " fill="#577E9F" transform="translate(182,77)"/>
<path d="M0 0 C3.35433109 0.94933899 6.69246505 1.89748835 10 3 C10 3.66 10 4.32 10 5 C5.2482602 4.56802365 3.07999946 3.67230705 0 0 Z " fill="#1C8597" transform="translate(202,332)"/>
<path d="M0 0 C0.66 0 1.32 0 2 0 C2 0.66 2 1.32 2 2 C2.5775 2.12375 3.155 2.2475 3.75 2.375 C6.02335767 3.00648824 7.9253529 3.88858191 10 5 C8.375 5.6875 8.375 5.6875 6 6 C2.75 4.5625 2.75 4.5625 0 3 C0 2.01 0 1.02 0 0 Z " fill="#1A7984" transform="translate(228,309)"/>
<path d="M0 0 C0.99 0 1.98 0 3 0 C3 0.99 3 1.98 3 3 C3.99 3.33 4.98 3.66 6 4 C6.33 5.65 6.66 7.3 7 9 C6.34 8.67 5.68 8.34 5 8 C5 7.34 5 6.68 5 6 C4.34 6 3.68 6 3 6 C2.01 4.02 1.02 2.04 0 0 Z " fill="#168585" transform="translate(170,300)"/>
<path d="M0 0 C2.97 1.98 2.97 1.98 6 4 C5.67 4.66 5.34 5.32 5 6 C3.35 5.67 1.7 5.34 0 5 C0 3.35 0 1.7 0 0 Z " fill="#198F98" transform="translate(209,294)"/>
<path d="M0 0 C0.33 0 0.66 0 1 0 C1.19491452 1.45736087 1.38069358 2.91594593 1.5625 4.375 C1.66691406 5.18710938 1.77132813 5.99921875 1.87890625 6.8359375 C2 9 2 9 1 11 C0.34 11 -0.32 11 -1 11 C-1.33 11.66 -1.66 12.32 -2 13 C-1.34 8.71 -0.68 4.42 0 0 Z " fill="#15646F" transform="translate(375,224)"/>
<path d="M0 0 C0 0.66 0 1.32 0 2 C-3.96 1.67 -7.92 1.34 -12 1 C-12 0.67 -12 0.34 -12 0 C-7.74433453 -1.16063604 -4.3164922 -0.76173392 0 0 Z " fill="#43637D" transform="translate(250,117)"/>
<path d="M0 0 C0.66 0 1.32 0 2 0 C2 0.66 2 1.32 2 2 C2.66 2.33 3.32 2.66 4 3 C3.67 3.66 3.34 4.32 3 5 C3.99 5.33 4.98 5.66 6 6 C4.02 6 2.04 6 0 6 C0 4.02 0 2.04 0 0 Z " fill="#527D9C" transform="translate(177,112)"/>
<path d="M0 0 C1.32 0.66 2.64 1.32 4 2 C4.33 1.34 4.66 0.68 5 0 C5.66 0.66 6.32 1.32 7 2 C6.67 2.66 6.34 3.32 6 4 C2.9375 4.625 2.9375 4.625 0 5 C-0.5625 3.0625 -0.5625 3.0625 -1 1 C-0.67 0.67 -0.34 0.34 0 0 Z " fill="#537795" transform="translate(311,26)"/>
<path d="M0 0 C0.928125 0.20625 1.85625 0.4125 2.8125 0.625 C2.5 2.5625 2.5 2.5625 1.8125 4.625 C0.8225 4.955 -0.1675 5.285 -1.1875 5.625 C-1.1875 4.635 -1.1875 3.645 -1.1875 2.625 C-2.8375 2.295 -4.4875 1.965 -6.1875 1.625 C-3.1875 -0.375 -3.1875 -0.375 0 0 Z " fill="#597C9B" transform="translate(238.1875,17.375)"/>
<path d="M0 0 C1.65 1.32 3.3 2.64 5 4 C4.67 4.66 4.34 5.32 4 6 C1.525 5.01 1.525 5.01 -1 4 C-0.67 2.68 -0.34 1.36 0 0 Z " fill="#118A98" transform="translate(338,414)"/>
<path d="M0 0 C-2.31 1.65 -4.62 3.3 -7 5 C-7.33 3.68 -7.66 2.36 -8 1 C-2.25 -1.125 -2.25 -1.125 0 0 Z " fill="#155966" transform="translate(345,328)"/>
<path d="M0 0 C0 1.65 0 3.3 0 5 C-1.65 4.67 -3.3 4.34 -5 4 C-4.67 3.01 -4.34 2.02 -4 1 C-2 0 -2 0 0 0 Z " fill="#12B2B9" transform="translate(207,328)"/>
<path d="M0 0 C-0.33 0.99 -0.66 1.98 -1 3 C-3.64 3 -6.28 3 -9 3 C-6.40821726 0.40821726 -3.54324677 -1.77162338 0 0 Z " fill="#1A7385" transform="translate(309,316)"/>
<path d="M0 0 C0.33 0 0.66 0 1 0 C1.1875 2.375 1.1875 2.375 1 5 C0.01 5.66 -0.98 6.32 -2 7 C-2.99 6.67 -3.98 6.34 -5 6 C-3.35830472 3.97945196 -1.69088222 1.97956942 0 0 Z " fill="#1B6575" transform="translate(350,282)"/>
<path d="M0 0 C0.66 0.33 1.32 0.66 2 1 C2 3.31 2 5.62 2 8 C0.68 7.34 -0.64 6.68 -2 6 C-2 3.17555626 -1.98538594 1.98538594 0 0 Z " fill="#2E5067" transform="translate(228,283)"/>
<path d="M0 0 C0.33 0.66 0.66 1.32 1 2 C-0.25 4.625 -0.25 4.625 -2 7 C-2.99 7 -3.98 7 -5 7 C-4.60196439 4.11424181 -4.20990931 3.17810487 -1.9375 1.25 C-1.298125 0.8375 -0.65875 0.425 0 0 Z " fill="#1F7885" transform="translate(379,187)"/>
<path d="M0 0 C0.66 0.33 1.32 0.66 2 1 C-1.07999946 4.67230705 -3.2482602 5.56802365 -8 6 C-5.63404067 3.38499232 -3.13950774 1.61000397 0 0 Z " fill="#5C768E" transform="translate(223,22)"/>
<path d="M0 0 C1.98 0 3.96 0 6 0 C5.67 0.99 5.34 1.98 5 3 C3.35 3 1.7 3 0 3 C0 2.01 0 1.02 0 0 Z " fill="#07BCC7" transform="translate(185,434)"/>
<path d="M0 0 C2.625 -0.1875 2.625 -0.1875 5 0 C4.67 1.65 4.34 3.3 4 5 C2.02 4.34 0.04 3.68 -2 3 C-1.34 2.01 -0.68 1.02 0 0 Z " fill="#13BDC3" transform="translate(195,411)"/>
<path d="M0 0 C2.97 0.495 2.97 0.495 6 1 C5.67 1.99 5.34 2.98 5 4 C3.35 3.67 1.7 3.34 0 3 C0 2.01 0 1.02 0 0 Z " fill="#1A7D88" transform="translate(313,340)"/>
<path d="M0 0 C2.64 0.33 5.28 0.66 8 1 C8 1.66 8 2.32 8 3 C5.125 3.1875 5.125 3.1875 2 3 C1.34 2.01 0.68 1.02 0 0 Z " fill="#45637A" transform="translate(335,166)"/>
<path d="M0 0 C2 1 2 1 3.125 4.0625 C3.41375 5.031875 3.7025 6.00125 4 7 C1.525 6.01 1.525 6.01 -1 5 C-0.67 3.35 -0.34 1.7 0 0 Z " fill="#1695A0" transform="translate(253,146)"/>
<path d="M0 0 C0.33 0.99 0.66 1.98 1 3 C-0.65 3.66 -2.3 4.32 -4 5 C-4.33 4.01 -4.66 3.02 -5 2 C-2 0 -2 0 0 0 Z " fill="#158E99" transform="translate(338,299)"/>
<path d="M0 0 C0.66 0.33 1.32 0.66 2 1 C1.1875 2.9375 1.1875 2.9375 0 5 C-0.99 5.33 -1.98 5.66 -3 6 C-3 4.68 -3 3.36 -3 2 C-2.01 2 -1.02 2 0 2 C0 1.34 0 0.68 0 0 Z " fill="#0AC3CC" transform="translate(158,264)"/>
<path d="M0 0 C3.65316671 1.24976756 4.78065836 1.67098753 7 5 C4.625 4.75 4.625 4.75 2 4 C0.6875 1.9375 0.6875 1.9375 0 0 Z " fill="#1F7689" transform="translate(299,172)"/>
<path d="M0 0 C2.31 0.33 4.62 0.66 7 1 C3.375 4 3.375 4 0 4 C0 2.68 0 1.36 0 0 Z " fill="#4E7B94" transform="translate(191,153)"/>
<path d="M0 0 C0 0.66 0 1.32 0 2 C-2.31 2.33 -4.62 2.66 -7 3 C-7.33 2.34 -7.66 1.68 -8 1 C-5.07175348 0.02391783 -3.04386724 -0.08226668 0 0 Z " fill="#2F616A" transform="translate(187,132)"/>
</svg>
